<svg id="svg" xmlns="http://www.w3.org/2000/svg" xmlns:xlink="http://www.w3.org/1999/xlink" width="400" height="400" viewBox="0, 0, 400,400"><g id="svgg"><path id="path0" d="M43.696 31.730 C 43.026 32.102,42.909 32.349,43.242 32.682 C 43.490 32.930,43.897 33.493,44.146 33.934 C 44.396 34.374,45.455 35.928,46.500 37.386 C 47.545 38.845,48.400 40.151,48.400 40.288 C 48.400 40.425,48.709 40.878,49.087 41.296 C 49.464 41.713,50.139 42.655,50.587 43.388 C 51.272 44.512,53.298 47.497,56.705 52.400 C 57.087 52.950,57.539 53.461,57.708 53.536 C 57.878 53.611,58.311 54.241,58.670 54.936 C 59.260 56.077,61.111 58.630,62.235 59.853 C 62.474 60.114,63.269 61.288,64.002 62.463 C 67.181 67.559,67.650 68.258,68.599 69.307 C 69.150 69.916,69.600 70.762,69.600 71.187 C 69.600 71.612,69.858 72.105,70.173 72.281 C 70.763 72.611,71.466 73.524,74.574 78.000 C 75.568 79.430,76.918 81.320,77.575 82.200 C 78.232 83.080,79.068 84.340,79.433 85.000 C 79.798 85.660,80.374 86.516,80.713 86.903 C 81.052 87.289,81.525 87.937,81.764 88.342 C 82.004 88.748,82.976 90.141,83.923 91.440 C 86.350 94.762,88.400 98.082,88.400 98.687 C 88.400 98.969,88.564 99.200,88.765 99.200 C 88.966 99.200,89.895 100.325,90.831 101.700 C 91.767 103.075,93.203 105.010,94.023 106.000 C 95.349 107.601,99.162 113.014,100.186 114.747 C 100.398 115.106,101.073 116.149,101.686 117.065 C 102.299 117.981,102.800 118.920,102.800 119.151 C 102.800 119.383,103.148 119.758,103.573 119.986 C 103.998 120.213,104.469 120.788,104.620 121.262 C 104.770 121.737,105.863 123.388,107.047 124.932 C 108.231 126.475,109.200 127.977,109.200 128.269 C 109.200 128.561,109.353 128.800,109.540 128.800 C 109.726 128.800,111.194 130.735,112.802 133.100 C 114.410 135.465,115.850 137.490,116.003 137.600 C 116.276 137.797,117.837 140.103,119.400 142.619 C 121.039 145.258,122.310 147.028,122.946 147.555 C 123.306 147.854,123.600 148.324,123.600 148.600 C 123.600 148.876,123.880 149.335,124.223 149.619 C 124.566 149.904,125.113 150.774,125.439 151.554 C 125.764 152.334,126.188 153.069,126.381 153.188 C 126.708 153.390,130.884 158.985,132.896 161.916 C 133.393 162.641,134.288 163.871,134.884 164.652 C 135.480 165.432,136.083 166.432,136.224 166.875 C 136.364 167.317,136.743 167.976,137.066 168.339 C 137.932 169.315,139.512 171.657,140.076 172.800 C 140.347 173.350,141.392 174.790,142.400 176.000 C 143.407 177.210,144.539 178.650,144.916 179.200 C 148.386 184.267,149.275 185.533,149.975 186.400 C 150.419 186.950,150.786 187.597,150.791 187.838 C 150.796 188.079,151.144 188.587,151.564 188.967 C 151.984 189.348,152.438 190.096,152.572 190.629 C 152.706 191.163,152.979 191.600,153.179 191.600 C 153.801 191.600,156.400 196.248,156.400 197.360 C 156.400 198.529,154.623 202.177,153.512 203.288 C 153.120 203.680,152.800 204.174,152.800 204.386 C 152.800 204.598,152.305 205.364,151.700 206.087 C 151.095 206.811,150.420 207.692,150.200 208.045 C 149.641 208.941,146.189 213.875,144.773 215.800 C 144.126 216.680,142.752 218.660,141.720 220.200 C 140.688 221.740,139.474 223.380,139.022 223.844 C 138.570 224.308,137.750 225.467,137.200 226.420 C 135.991 228.515,129.191 238.715,128.146 240.002 C 127.736 240.507,127.099 241.240,126.730 241.630 C 126.362 242.020,125.853 242.727,125.600 243.200 C 125.347 243.673,124.871 244.362,124.544 244.730 C 123.556 245.840,122.043 248.123,121.426 249.432 C 121.107 250.109,120.566 250.896,120.223 251.181 C 119.880 251.465,119.600 251.884,119.600 252.111 C 119.600 252.339,119.105 253.164,118.500 253.946 C 117.895 254.728,117.310 255.561,117.200 255.797 C 116.886 256.472,112.771 262.263,110.987 264.541 C 109.165 266.867,107.610 269.104,105.383 272.600 C 104.543 273.920,103.617 275.144,103.327 275.320 C 103.037 275.496,102.800 275.892,102.800 276.199 C 102.800 276.507,102.350 277.244,101.800 277.838 C 101.250 278.431,100.800 279.064,100.800 279.244 C 100.800 279.425,100.292 280.163,99.671 280.886 C 99.050 281.609,97.852 283.370,97.008 284.800 C 96.165 286.230,94.450 288.660,93.197 290.200 C 91.943 291.740,90.621 293.576,90.259 294.280 C 89.897 294.984,89.354 295.704,89.054 295.880 C 88.754 296.056,88.209 296.785,87.844 297.500 C 87.478 298.215,87.040 298.800,86.870 298.800 C 86.700 298.800,86.326 299.448,86.040 300.241 C 85.753 301.033,85.222 301.980,84.859 302.346 C 84.497 302.712,83.971 303.459,83.691 304.005 C 83.412 304.552,82.742 305.630,82.204 306.400 C 81.665 307.170,80.814 308.398,80.312 309.130 C 79.811 309.861,78.805 311.121,78.078 311.930 C 77.351 312.738,76.276 314.210,75.689 315.200 C 74.515 317.182,74.590 317.076,72.603 319.538 C 71.831 320.494,71.200 321.439,71.200 321.638 C 71.200 321.837,70.885 322.321,70.500 322.712 C 70.115 323.104,69.482 324.049,69.093 324.812 C 68.704 325.576,67.844 326.920,67.183 327.800 C 66.179 329.136,63.976 332.317,60.800 337.019 C 58.825 339.944,56.858 342.666,55.900 343.802 C 55.295 344.519,54.800 345.275,54.800 345.483 C 54.800 345.691,54.350 346.283,53.800 346.800 C 53.250 347.317,52.800 347.972,52.800 348.256 C 52.800 348.540,52.260 349.325,51.600 350.000 C 50.940 350.675,50.400 351.418,50.400 351.651 C 50.400 351.883,50.033 352.552,49.585 353.137 C 49.137 353.722,47.589 356.000,46.147 358.200 C 44.704 360.400,43.112 362.650,42.610 363.200 C 42.108 363.750,41.271 364.855,40.749 365.655 C 40.227 366.455,39.320 367.715,38.733 368.455 C 37.954 369.438,37.724 370.096,37.880 370.900 L 38.093 372.000 80.693 372.000 L 123.292 372.000 124.679 370.500 C 125.441 369.675,126.344 368.460,126.685 367.800 C 127.025 367.140,127.550 366.330,127.850 366.000 C 128.934 364.808,130.290 362.954,131.798 360.600 C 132.643 359.280,133.532 358.020,133.773 357.800 C 134.215 357.396,134.969 356.350,136.800 353.598 C 137.350 352.771,138.520 351.054,139.400 349.781 C 140.280 348.509,141.187 347.156,141.416 346.776 C 141.644 346.396,142.087 345.777,142.400 345.400 C 142.713 345.023,143.156 344.385,143.384 343.983 C 143.613 343.581,144.520 342.205,145.399 340.926 C 146.279 339.647,147.198 338.224,147.442 337.765 C 148.004 336.707,151.241 332.518,152.516 331.200 C 153.048 330.650,153.611 329.795,153.768 329.300 C 153.925 328.805,154.232 328.400,154.449 328.400 C 154.667 328.400,155.208 327.579,155.652 326.576 C 156.095 325.573,156.699 324.660,156.993 324.547 C 157.287 324.434,157.629 323.937,157.754 323.442 C 157.878 322.947,158.884 321.332,159.990 319.853 C 161.095 318.374,162.002 317.037,162.004 316.882 C 162.008 316.609,164.167 313.658,165.309 312.365 C 165.618 312.015,167.078 309.945,168.555 307.765 C 170.031 305.584,171.857 302.990,172.613 302.000 C 173.368 301.010,174.353 299.525,174.801 298.700 C 175.249 297.875,175.773 297.200,175.965 297.200 C 176.156 297.200,176.419 296.780,176.548 296.266 C 176.770 295.381,178.305 293.133,179.863 291.412 C 180.255 290.979,180.868 290.051,181.225 289.351 C 181.813 288.197,184.001 285.066,186.890 281.243 C 187.490 280.449,188.439 279.170,189.000 278.400 C 189.561 277.630,190.563 276.280,191.227 275.400 C 191.891 274.520,192.785 273.080,193.214 272.200 C 193.644 271.320,194.629 269.790,195.403 268.800 C 196.178 267.810,197.064 266.456,197.373 265.792 C 198.527 263.308,200.592 262.424,202.666 263.527 C 203.817 264.138,206.800 267.891,206.800 268.727 C 206.800 268.917,207.168 269.507,207.618 270.037 C 208.068 270.566,209.142 272.080,210.005 273.400 C 210.868 274.720,211.859 276.160,212.207 276.600 C 216.144 281.580,221.600 289.511,221.600 290.255 C 221.600 290.539,221.960 290.965,222.400 291.200 C 222.840 291.435,223.200 291.858,223.200 292.139 C 223.200 292.419,223.571 293.047,224.024 293.534 C 224.478 294.021,225.113 295.052,225.437 295.827 C 225.761 296.601,226.273 297.330,226.576 297.446 C 226.879 297.562,227.345 298.185,227.612 298.829 C 227.879 299.473,228.240 300.000,228.415 300.000 C 228.708 300.000,232.000 304.659,232.000 305.073 C 232.000 305.172,232.834 306.277,233.853 307.527 C 234.872 308.777,235.907 310.248,236.153 310.795 C 236.399 311.341,236.837 312.061,237.126 312.395 C 238.575 314.064,240.393 316.651,240.396 317.051 C 240.398 317.299,240.680 317.735,241.023 318.019 C 241.366 318.304,241.907 319.091,242.226 319.768 C 242.902 321.202,244.384 323.333,245.803 324.907 C 246.351 325.516,246.800 326.219,246.800 326.469 C 246.800 326.720,247.250 327.514,247.800 328.236 C 248.350 328.957,248.800 329.668,248.800 329.816 C 248.800 329.964,249.232 330.424,249.759 330.839 C 250.286 331.254,251.363 332.540,252.153 333.697 C 252.942 334.854,254.127 336.520,254.787 337.400 C 255.446 338.280,256.207 339.450,256.478 340.000 C 256.748 340.550,257.381 341.509,257.885 342.131 C 258.388 342.753,258.910 343.698,259.043 344.231 C 259.177 344.764,259.432 345.200,259.610 345.200 C 259.947 345.200,263.200 349.883,263.200 350.367 C 263.200 350.519,263.838 351.340,264.618 352.192 C 265.936 353.630,269.600 358.637,269.600 358.999 C 269.600 359.088,270.185 359.986,270.900 360.995 C 271.615 362.004,272.600 363.408,273.089 364.115 C 273.578 364.822,274.230 365.670,274.538 366.000 C 274.846 366.330,275.212 366.960,275.351 367.400 C 275.490 367.840,276.393 369.055,277.358 370.100 L 279.113 372.000 321.757 372.000 L 364.400 372.000 364.400 371.026 C 364.400 369.829,363.697 367.907,363.131 367.558 C 362.901 367.415,362.327 366.663,361.856 365.887 C 361.385 365.110,359.447 362.433,357.550 359.937 C 355.652 357.442,353.805 354.860,353.445 354.200 C 352.395 352.276,351.867 351.483,350.735 350.128 C 350.150 349.426,349.539 348.436,349.378 347.926 C 349.217 347.417,348.751 346.765,348.343 346.477 C 347.934 346.190,347.600 345.708,347.600 345.406 C 347.600 345.104,347.327 344.584,346.993 344.250 C 346.125 343.382,343.761 340.248,343.239 339.274 C 342.813 338.478,339.536 333.802,335.111 327.680 C 333.950 326.073,332.928 324.543,332.840 324.280 C 332.753 324.016,332.258 323.291,331.740 322.669 C 331.223 322.047,330.800 321.281,330.800 320.967 C 330.800 320.652,330.350 320.003,329.800 319.525 C 329.250 319.047,328.800 318.435,328.800 318.166 C 328.800 317.896,328.169 316.894,327.397 315.938 C 326.626 314.982,325.861 314.020,325.697 313.800 C 320.003 306.131,318.400 303.846,318.400 303.399 C 318.400 303.138,318.042 302.600,317.605 302.205 C 317.168 301.809,316.592 300.881,316.325 300.143 C 316.058 299.404,315.702 298.800,315.533 298.800 C 315.275 298.800,314.049 297.078,310.000 291.029 C 309.670 290.536,309.085 289.820,308.700 289.438 C 308.315 289.056,308.000 288.593,308.000 288.409 C 308.000 288.226,307.415 287.362,306.700 286.490 C 305.320 284.806,305.258 284.719,302.788 281.000 C 301.911 279.680,300.836 278.180,300.397 277.666 C 299.959 277.152,299.600 276.484,299.600 276.180 C 299.600 275.877,299.265 275.449,298.855 275.229 C 298.445 275.010,297.873 274.239,297.583 273.515 C 297.293 272.792,296.393 271.390,295.583 270.400 C 294.773 269.410,293.791 267.970,293.400 267.200 C 293.009 266.430,292.029 264.990,291.223 264.000 C 288.144 260.221,280.819 249.645,280.808 248.962 C 280.803 248.721,280.456 248.213,280.037 247.833 C 279.617 247.453,279.041 246.570,278.757 245.871 C 278.473 245.172,277.945 244.385,277.584 244.122 C 277.223 243.859,276.226 242.599,275.369 241.322 C 273.926 239.173,272.590 237.333,271.572 236.093 C 271.343 235.815,270.058 233.925,268.715 231.893 C 267.373 229.862,265.960 227.840,265.575 227.400 C 265.191 226.960,264.544 226.049,264.138 225.375 C 263.118 223.681,261.736 221.555,261.035 220.600 C 258.977 217.799,258.374 216.896,258.003 216.056 C 257.774 215.536,256.800 214.186,255.840 213.056 C 254.879 211.925,253.577 210.190,252.947 209.200 C 252.316 208.210,250.990 206.342,250.000 205.048 C 246.555 200.548,245.031 196.646,246.389 195.807 C 246.602 195.675,247.142 194.809,247.588 193.883 C 248.034 192.958,248.940 191.480,249.601 190.600 C 251.562 187.991,254.533 183.670,255.530 181.978 C 256.041 181.110,256.618 180.400,256.811 180.400 C 257.004 180.400,257.440 179.815,257.780 179.100 C 258.120 178.385,259.156 176.990,260.083 176.000 C 261.009 175.010,262.096 173.570,262.498 172.800 C 264.179 169.578,264.537 168.965,265.140 168.273 C 265.488 167.873,266.139 166.945,266.587 166.212 C 267.859 164.124,271.020 159.638,273.103 156.964 C 274.146 155.624,275.222 154.184,275.494 153.764 C 275.765 153.344,276.433 152.370,276.978 151.600 C 277.522 150.830,278.339 149.525,278.792 148.700 C 279.245 147.875,279.780 147.200,279.981 147.200 C 280.182 147.200,280.469 146.795,280.619 146.300 C 280.770 145.805,281.367 144.773,281.946 144.006 C 282.526 143.240,283.180 142.313,283.400 141.948 C 283.854 141.193,286.068 138.050,288.434 134.800 C 289.315 133.590,290.453 131.967,290.963 131.194 C 291.474 130.421,292.186 129.544,292.546 129.245 C 292.906 128.946,293.200 128.469,293.200 128.185 C 293.200 127.901,293.560 127.248,293.999 126.734 C 295.210 125.319,296.702 123.151,297.465 121.700 C 297.841 120.985,298.291 120.400,298.466 120.400 C 298.641 120.400,299.149 119.684,299.595 118.809 C 300.042 117.934,300.950 116.449,301.615 115.509 C 302.279 114.569,303.562 112.720,304.466 111.400 C 305.371 110.080,306.445 108.640,306.853 108.200 C 308.267 106.676,309.600 104.883,309.600 104.504 C 309.600 104.295,309.979 103.781,310.443 103.362 C 310.906 102.943,311.634 101.916,312.061 101.081 C 312.487 100.245,313.098 99.461,313.418 99.338 C 313.738 99.215,314.005 98.819,314.011 98.457 C 314.017 98.096,314.557 97.093,315.211 96.229 C 315.865 95.365,316.400 94.518,316.400 94.347 C 316.400 94.053,317.054 93.128,322.725 85.400 C 324.016 83.640,325.650 81.345,326.355 80.300 C 327.061 79.255,327.790 78.400,327.976 78.400 C 328.161 78.400,328.421 77.971,328.553 77.446 C 328.685 76.921,329.241 76.066,329.789 75.546 C 330.338 75.026,330.789 74.316,330.793 73.970 C 330.797 73.623,331.250 72.917,331.800 72.400 C 332.350 71.883,332.800 71.214,332.800 70.912 C 332.800 70.610,333.230 69.934,333.756 69.408 C 334.281 68.882,335.260 67.495,335.931 66.326 C 337.209 64.096,344.969 53.177,346.253 51.800 C 346.663 51.361,347.269 50.522,347.600 49.937 C 347.930 49.352,348.544 48.362,348.965 47.737 C 349.386 47.112,350.659 45.160,351.793 43.400 C 354.820 38.702,354.801 38.729,357.341 35.409 C 358.629 33.726,359.619 32.295,359.541 32.229 C 358.410 31.264,355.677 31.200,315.726 31.202 L 273.800 31.204 272.768 32.102 C 271.707 33.026,270.439 34.657,268.000 38.239 C 267.230 39.370,265.861 41.266,264.957 42.454 C 264.053 43.641,263.186 45.015,263.030 45.507 C 262.874 45.998,262.398 46.587,261.973 46.814 C 261.548 47.042,261.200 47.466,261.200 47.756 C 261.200 48.046,260.750 48.769,260.199 49.363 C 259.649 49.957,258.922 50.928,258.585 51.522 C 257.862 52.791,256.278 55.211,254.600 57.606 C 253.940 58.549,253.220 59.608,253.000 59.960 C 251.339 62.617,249.472 65.129,247.828 66.918 C 247.263 67.533,246.800 68.200,246.800 68.400 C 246.800 68.600,246.340 69.224,245.778 69.786 C 245.216 70.348,244.493 71.436,244.173 72.204 C 243.852 72.972,243.424 73.600,243.222 73.600 C 243.019 73.600,242.752 73.920,242.628 74.312 C 242.386 75.074,240.059 78.877,239.025 80.200 C 238.681 80.640,237.827 81.900,237.126 83.000 C 236.426 84.100,235.117 85.900,234.217 87.000 C 233.317 88.100,231.719 90.305,230.665 91.900 C 229.611 93.495,228.581 94.800,228.375 94.800 C 228.169 94.800,228.000 95.064,228.000 95.386 C 228.000 95.708,227.484 96.563,226.854 97.286 C 226.224 98.009,225.589 98.981,225.444 99.447 C 225.298 99.913,224.824 100.616,224.390 101.009 C 223.955 101.402,223.600 101.928,223.600 102.177 C 223.600 102.426,223.067 103.253,222.416 104.015 C 221.765 104.777,221.225 105.615,221.216 105.877 C 221.207 106.140,220.882 106.590,220.494 106.877 C 220.105 107.165,219.586 107.850,219.340 108.400 C 219.094 108.950,217.689 111.008,216.219 112.973 C 214.748 114.938,213.304 117.008,213.010 117.573 C 212.715 118.138,211.738 119.395,210.837 120.367 C 209.937 121.338,209.200 122.252,209.200 122.398 C 209.200 122.931,203.682 131.232,203.021 131.694 C 201.279 132.909,197.937 131.282,197.347 128.931 C 197.218 128.419,196.950 128.000,196.750 128.000 C 196.550 128.000,196.087 127.370,195.719 126.600 C 195.352 125.830,194.908 125.200,194.733 125.200 C 194.557 125.200,193.957 124.300,193.400 123.200 C 192.843 122.100,192.210 121.200,191.993 121.200 C 191.777 121.200,191.600 120.947,191.600 120.638 C 191.600 120.329,191.015 119.349,190.300 118.462 C 189.585 117.574,188.589 116.252,188.087 115.524 C 187.584 114.796,185.964 112.517,184.487 110.460 C 183.009 108.402,181.350 106.042,180.800 105.213 C 180.250 104.385,179.260 102.934,178.600 101.990 C 176.376 98.807,176.202 98.551,175.328 97.174 C 174.848 96.418,174.077 95.260,173.615 94.600 C 173.153 93.940,172.335 92.770,171.796 92.000 C 171.258 91.230,170.594 90.150,170.320 89.600 C 170.047 89.050,169.458 88.220,169.012 87.756 C 168.565 87.292,167.878 86.482,167.485 85.956 C 164.944 82.557,164.000 81.221,164.000 81.024 C 164.000 80.901,163.718 80.485,163.373 80.100 C 162.593 79.229,158.865 73.536,157.596 71.279 C 157.077 70.355,156.506 69.600,156.326 69.600 C 156.147 69.600,156.000 69.328,156.000 68.996 C 156.000 68.664,155.505 67.852,154.900 67.191 C 153.058 65.179,146.713 56.442,145.423 54.140 C 145.072 53.513,144.155 52.190,143.386 51.200 C 142.618 50.210,141.736 48.856,141.427 48.192 C 141.119 47.527,140.491 46.645,140.033 46.230 C 139.575 45.815,139.193 45.279,139.184 45.038 C 139.175 44.797,138.635 43.977,137.984 43.215 C 137.333 42.453,136.800 41.689,136.800 41.516 C 136.800 41.125,134.370 37.691,132.106 34.884 C 131.168 33.721,130.400 32.632,130.400 32.465 C 130.400 31.113,46.094 30.399,43.696 31.730 " stroke="none" fill="#05a5fc" fill-rule="evenodd"></path><path id="path1" d="M0.000 200.000 L 0.000 400.000 200.000 400.000 L 400.000 400.000 400.000 200.000 L 400.000 0.000 200.000 0.000 L 0.000 0.000 0.000 200.000 M131.761 30.500 C 132.882 31.655,134.160 33.224,134.600 33.986 C 135.040 34.748,135.670 35.750,136.000 36.212 C 137.344 38.094,138.397 39.820,138.399 40.142 C 138.399 40.331,138.850 40.839,139.400 41.271 C 139.950 41.704,140.400 42.306,140.400 42.609 C 140.400 42.912,140.646 43.304,140.946 43.480 C 141.246 43.656,141.769 44.340,142.108 45.000 C 142.446 45.660,143.056 46.593,143.462 47.074 C 143.868 47.554,144.920 48.976,145.800 50.234 C 146.680 51.491,147.967 53.280,148.659 54.210 C 149.352 55.139,150.121 56.278,150.368 56.741 C 150.616 57.204,151.264 58.028,151.809 58.573 C 152.354 59.118,152.800 59.759,152.800 59.998 C 152.800 60.237,153.129 60.920,153.530 61.516 C 155.814 64.906,156.685 66.315,157.110 67.300 C 157.370 67.905,157.749 68.400,157.952 68.400 C 158.155 68.400,158.696 68.985,159.154 69.700 C 159.612 70.415,160.614 71.810,161.380 72.800 C 164.749 77.150,169.194 83.673,169.197 84.271 C 169.199 84.531,169.473 85.016,169.807 85.350 C 170.859 86.402,173.232 89.633,173.689 90.636 C 173.931 91.166,174.277 91.600,174.459 91.600 C 174.641 91.600,175.068 92.268,175.409 93.084 C 175.750 93.900,176.338 94.876,176.715 95.252 C 177.092 95.628,177.940 96.702,178.600 97.639 C 179.260 98.576,180.655 100.490,181.700 101.892 C 182.745 103.295,183.600 104.524,183.600 104.623 C 183.600 104.722,184.590 106.094,185.800 107.671 C 187.010 109.248,188.000 110.751,188.000 111.011 C 188.000 111.271,188.405 111.936,188.900 112.489 C 189.748 113.437,190.570 114.681,192.028 117.220 C 192.374 117.822,193.139 118.887,193.728 119.588 C 194.318 120.288,194.800 121.019,194.800 121.213 C 194.800 121.406,195.205 122.002,195.700 122.538 C 196.195 123.073,197.498 124.702,198.595 126.156 C 200.938 129.260,201.488 129.372,203.256 127.100 C 203.983 126.165,204.788 125.267,205.045 125.105 C 205.301 124.943,205.623 124.363,205.760 123.817 C 205.897 123.270,206.367 122.632,206.805 122.397 C 207.242 122.163,207.600 121.733,207.600 121.441 C 207.600 121.149,208.095 120.259,208.700 119.463 C 209.305 118.667,210.880 116.298,212.200 114.198 C 213.520 112.099,215.731 108.922,217.114 107.138 C 218.497 105.353,219.827 103.513,220.069 103.047 C 220.311 102.581,221.269 101.300,222.197 100.200 C 223.126 99.100,224.316 97.420,224.843 96.466 C 225.369 95.512,226.102 94.188,226.470 93.523 C 226.839 92.858,227.514 91.967,227.970 91.542 C 228.427 91.117,228.800 90.596,228.800 90.384 C 228.800 90.173,229.141 89.659,229.558 89.242 C 229.975 88.825,230.560 88.032,230.858 87.480 C 231.824 85.689,237.275 77.855,238.960 75.834 C 239.862 74.752,240.960 73.296,241.400 72.596 C 243.605 69.092,244.108 68.400,244.449 68.400 C 244.653 68.400,245.005 67.905,245.232 67.300 C 245.459 66.695,246.057 65.570,246.562 64.800 C 247.066 64.030,248.173 62.320,249.023 61.000 C 249.872 59.680,250.889 58.251,251.283 57.825 C 251.677 57.398,252.000 56.919,252.000 56.760 C 252.000 56.602,252.764 55.511,253.698 54.336 C 256.103 51.312,257.068 49.975,257.839 48.600 C 258.209 47.940,258.647 47.310,258.813 47.200 C 259.227 46.925,263.517 40.522,264.293 39.019 C 264.640 38.348,265.173 37.617,265.478 37.393 C 265.783 37.169,266.251 36.610,266.517 36.150 C 267.668 34.159,269.374 31.716,270.348 30.664 C 272.575 28.260,269.650 28.400,317.557 28.400 L 361.555 28.400 362.177 29.289 C 363.066 30.557,362.947 32.160,361.868 33.469 C 361.356 34.091,360.821 34.915,360.681 35.300 C 360.540 35.685,360.243 36.000,360.021 36.000 C 359.798 36.000,359.227 36.765,358.750 37.700 C 358.014 39.146,356.289 41.721,355.602 42.400 C 355.491 42.510,354.604 43.770,353.630 45.200 C 352.657 46.630,351.622 47.944,351.330 48.120 C 351.039 48.296,350.800 48.688,350.800 48.991 C 350.800 49.294,350.350 49.896,349.800 50.329 C 349.250 50.761,348.800 51.242,348.800 51.397 C 348.800 51.776,345.955 56.495,345.422 57.000 C 344.894 57.500,342.260 61.470,341.595 62.768 C 341.322 63.300,339.727 65.525,338.050 67.713 C 336.372 69.901,334.619 72.258,334.153 72.952 C 333.687 73.646,333.012 74.458,332.653 74.756 C 332.294 75.054,332.000 75.510,332.000 75.769 C 332.000 76.374,329.093 80.859,328.245 81.563 C 327.890 81.857,327.600 82.337,327.600 82.628 C 327.600 82.920,327.150 83.644,326.600 84.238 C 326.050 84.831,325.600 85.464,325.600 85.644 C 325.600 85.825,325.105 86.564,324.500 87.287 C 323.895 88.011,323.220 88.895,323.000 89.253 C 321.629 91.483,318.618 95.854,318.219 96.195 C 317.958 96.418,317.397 97.117,316.972 97.750 C 316.547 98.382,315.750 99.573,315.200 100.396 C 314.650 101.219,313.703 102.637,313.095 103.547 C 312.487 104.456,311.832 105.200,311.638 105.200 C 311.445 105.200,311.177 105.636,311.043 106.169 C 310.910 106.702,310.375 107.647,309.855 108.269 C 309.335 108.891,308.783 109.805,308.628 110.300 C 308.473 110.795,308.182 111.200,307.981 111.200 C 307.780 111.200,307.249 111.875,306.801 112.700 C 306.353 113.525,305.360 115.010,304.595 116.000 C 303.829 116.990,303.034 118.186,302.827 118.658 C 302.621 119.130,302.287 119.580,302.086 119.658 C 301.884 119.736,301.245 120.520,300.664 121.400 C 298.760 124.287,298.218 124.993,297.505 125.523 C 297.117 125.810,296.800 126.260,296.800 126.523 C 296.799 126.785,295.983 128.170,294.987 129.600 C 293.990 131.030,292.881 132.650,292.522 133.200 C 291.462 134.824,290.639 136.062,290.000 136.996 C 289.670 137.478,288.883 138.652,288.252 139.605 C 287.620 140.558,286.949 141.531,286.761 141.769 C 285.568 143.271,282.331 147.814,280.836 150.084 C 279.866 151.558,278.831 152.856,278.536 152.969 C 278.241 153.082,278.000 153.434,278.000 153.750 C 278.000 154.066,277.370 155.078,276.600 156.000 C 275.830 156.922,275.200 157.934,275.200 158.250 C 275.200 158.566,274.930 158.929,274.600 159.055 C 274.270 159.182,274.000 159.509,274.000 159.783 C 274.000 160.057,273.010 161.660,271.800 163.347 C 270.590 165.033,269.600 166.547,269.600 166.711 C 269.600 166.874,269.195 167.457,268.700 168.005 C 266.152 170.827,260.829 178.298,260.811 179.077 C 260.805 179.340,260.477 179.790,260.082 180.077 C 259.687 180.365,259.048 181.275,258.663 182.100 C 258.278 182.925,257.803 183.600,257.608 183.600 C 257.413 183.600,257.128 183.995,256.975 184.478 C 256.822 184.961,255.849 186.448,254.813 187.783 C 253.778 189.117,252.699 190.642,252.416 191.171 C 252.133 191.699,251.136 193.171,250.201 194.441 C 248.129 197.257,248.183 198.029,250.685 201.339 C 251.657 202.626,252.650 204.111,252.891 204.639 C 253.131 205.168,253.458 205.600,253.616 205.600 C 253.774 205.600,254.128 206.144,254.404 206.809 C 254.679 207.475,255.119 208.150,255.380 208.309 C 256.005 208.692,258.800 212.956,258.800 213.527 C 258.800 213.772,259.128 214.147,259.528 214.362 C 259.929 214.576,260.586 215.482,260.989 216.376 C 261.392 217.269,261.846 218.000,261.998 218.000 C 262.150 218.000,263.047 219.305,263.992 220.900 C 264.937 222.495,266.495 224.647,267.455 225.683 C 268.415 226.718,269.200 227.730,269.200 227.932 C 269.200 228.133,270.055 229.383,271.100 230.709 C 272.992 233.109,273.879 234.451,275.400 237.216 C 275.840 238.016,276.428 238.925,276.707 239.235 C 277.537 240.159,279.147 242.528,279.676 243.600 C 279.947 244.150,280.985 245.590,281.984 246.800 C 282.983 248.010,284.175 249.540,284.633 250.200 C 285.091 250.860,286.261 252.538,287.233 253.928 C 289.858 257.685,291.130 259.661,291.783 261.000 C 292.105 261.660,292.826 262.624,293.384 263.142 C 293.943 263.660,294.400 264.336,294.400 264.645 C 294.400 264.953,294.850 265.597,295.400 266.075 C 295.950 266.553,296.400 267.125,296.400 267.346 C 296.400 267.568,296.743 268.120,297.162 268.574 C 297.581 269.028,298.256 269.958,298.662 270.640 C 299.685 272.358,300.671 273.770,302.998 276.852 C 305.511 280.180,306.441 281.468,306.977 282.360 C 308.029 284.111,309.196 285.848,309.676 286.376 C 310.188 286.938,311.505 289.090,313.181 292.100 C 313.640 292.925,314.180 293.600,314.381 293.600 C 314.582 293.600,314.859 293.956,314.997 294.391 C 315.248 295.183,317.292 297.882,318.799 299.414 C 319.240 299.862,319.600 300.354,319.600 300.508 C 319.600 300.661,320.593 302.185,321.806 303.894 C 323.020 305.602,324.191 307.270,324.408 307.600 C 324.625 307.930,325.570 309.377,326.508 310.816 C 327.445 312.255,328.442 313.695,328.723 314.016 C 329.654 315.080,332.000 318.965,332.000 319.444 C 332.000 319.703,332.262 320.015,332.583 320.138 C 332.904 320.261,333.622 321.045,334.179 321.881 C 338.007 327.619,340.402 330.913,340.911 331.137 C 341.082 331.212,341.584 331.932,342.027 332.737 C 342.773 334.092,343.770 335.586,345.505 337.946 C 345.887 338.466,346.470 339.399,346.800 340.019 C 347.130 340.639,348.165 342.236,349.100 343.569 C 350.035 344.901,350.800 346.244,350.800 346.553 C 350.800 346.862,351.042 347.207,351.337 347.320 C 351.936 347.550,355.903 352.682,357.883 355.788 C 358.588 356.894,359.388 358.054,359.659 358.364 C 359.930 358.675,360.444 359.501,360.800 360.200 C 361.156 360.899,361.660 361.725,361.918 362.036 C 363.589 364.042,364.393 365.202,365.153 366.700 C 365.628 367.635,366.161 368.400,366.337 368.400 C 366.930 368.400,368.467 372.357,368.201 373.197 C 367.545 375.264,368.955 375.203,322.720 375.160 C 274.979 375.116,278.409 375.310,276.212 372.531 C 274.264 370.068,268.815 362.630,268.224 361.629 C 267.991 361.234,266.945 359.770,265.900 358.375 C 264.855 356.981,264.000 355.684,264.000 355.493 C 264.000 355.303,263.550 354.557,263.000 353.836 C 262.450 353.114,262.000 352.343,262.000 352.122 C 262.000 351.900,261.460 351.154,260.800 350.463 C 260.140 349.772,259.600 348.936,259.600 348.604 C 259.600 348.272,259.435 348.000,259.233 348.000 C 259.031 348.000,258.455 347.325,257.954 346.500 C 257.452 345.675,256.907 344.905,256.741 344.789 C 256.215 344.420,251.119 337.212,249.998 335.252 C 249.668 334.674,248.903 333.553,248.298 332.762 C 247.694 331.971,247.200 331.136,247.200 330.905 C 247.200 330.674,246.936 330.384,246.613 330.260 C 246.290 330.136,245.748 329.442,245.409 328.717 C 244.765 327.339,243.356 325.252,241.999 323.666 C 241.560 323.152,241.200 322.569,241.200 322.370 C 241.200 322.172,240.345 320.909,239.300 319.565 C 238.255 318.221,237.220 316.830,237.000 316.473 C 236.780 316.116,235.340 314.109,233.800 312.013 C 230.623 307.689,230.598 307.650,229.093 304.856 C 228.485 303.725,227.827 302.800,227.633 302.800 C 227.274 302.800,225.927 300.782,224.831 298.600 C 224.500 297.940,223.412 296.388,222.414 295.150 C 221.416 293.913,219.610 291.516,218.400 289.824 C 217.190 288.131,215.790 286.264,215.290 285.673 C 214.789 285.083,214.268 284.150,214.132 283.600 C 213.996 283.050,213.641 282.330,213.341 282.000 C 211.560 280.035,209.963 277.790,209.754 276.959 C 209.622 276.432,209.350 276.000,209.150 276.000 C 208.950 276.000,208.487 275.370,208.119 274.600 C 207.752 273.830,207.321 273.200,207.160 273.200 C 207.000 273.200,206.338 272.345,205.690 271.300 C 205.042 270.255,203.770 268.590,202.864 267.600 L 201.216 265.800 199.908 267.238 C 199.189 268.029,197.885 269.694,197.012 270.938 C 196.139 272.182,195.296 273.200,195.139 273.200 C 194.982 273.200,194.727 273.605,194.573 274.100 C 194.418 274.595,193.821 275.558,193.246 276.241 C 192.287 277.379,191.464 278.636,190.078 281.080 C 189.791 281.586,189.395 282.000,189.197 282.000 C 188.999 282.000,188.498 282.765,188.084 283.700 C 187.669 284.635,187.031 285.647,186.665 285.949 C 186.299 286.251,186.000 286.669,186.000 286.877 C 186.000 287.086,185.145 288.425,184.100 289.854 C 183.055 291.283,181.570 293.315,180.800 294.372 C 180.030 295.428,178.545 297.398,177.500 298.750 C 176.455 300.103,175.600 301.387,175.600 301.604 C 175.600 301.822,175.244 302.356,174.809 302.791 C 174.374 303.226,173.747 304.171,173.415 304.891 C 173.083 305.611,172.182 307.010,171.413 308.000 C 170.643 308.990,169.647 310.475,169.199 311.300 C 168.751 312.125,168.232 312.800,168.046 312.800 C 167.860 312.800,166.918 314.077,165.954 315.639 C 163.944 318.892,161.261 322.612,160.038 323.842 C 159.577 324.305,159.200 324.852,159.200 325.057 C 159.200 325.262,158.667 326.053,158.016 326.815 C 157.365 327.577,156.825 328.354,156.816 328.542 C 156.807 328.730,156.395 329.383,155.900 329.992 C 155.405 330.601,154.640 331.702,154.200 332.439 C 153.760 333.175,153.040 334.337,152.600 335.021 C 152.160 335.704,151.440 336.849,151.000 337.565 C 150.560 338.281,149.120 340.320,147.800 342.097 C 146.480 343.874,145.019 345.887,144.553 346.571 C 144.087 347.255,143.412 348.058,143.053 348.356 C 142.694 348.654,142.400 349.115,142.400 349.379 C 142.400 349.644,141.950 350.283,141.400 350.800 C 140.850 351.317,140.400 351.952,140.400 352.211 C 140.400 352.471,139.995 353.124,139.500 353.664 C 139.005 354.203,138.281 355.264,137.891 356.022 C 137.501 356.780,136.733 358.030,136.185 358.800 C 135.636 359.570,135.013 360.470,134.800 360.800 C 134.587 361.130,133.967 362.030,133.422 362.800 C 132.260 364.443,128.971 369.164,127.743 370.952 C 127.272 371.638,126.227 372.830,125.421 373.600 L 123.956 375.000 80.878 375.121 C 51.167 375.204,37.344 375.109,36.331 374.814 C 33.736 374.059,33.700 371.298,36.246 368.273 C 36.771 367.649,37.200 366.907,37.200 366.624 C 37.200 366.088,38.996 363.589,40.391 362.186 C 40.836 361.738,41.200 361.192,41.200 360.972 C 41.200 360.468,44.970 354.943,46.245 353.578 C 46.770 353.016,47.200 352.369,47.200 352.140 C 47.200 351.911,47.579 351.381,48.043 350.962 C 48.506 350.543,49.221 349.542,49.632 348.737 C 50.043 347.932,50.518 347.212,50.689 347.137 C 51.143 346.937,52.565 344.828,53.555 342.888 C 54.029 341.959,54.590 341.200,54.803 341.200 C 55.015 341.200,55.442 340.615,55.752 339.900 C 56.061 339.185,56.602 338.240,56.953 337.800 C 57.304 337.360,58.254 336.010,59.063 334.800 C 59.872 333.590,61.314 331.703,62.267 330.607 C 63.220 329.511,64.000 328.401,64.000 328.141 C 64.000 327.881,64.355 327.248,64.789 326.734 C 67.312 323.746,68.400 322.267,68.400 321.824 C 68.400 321.549,68.760 320.998,69.200 320.600 C 69.640 320.202,70.000 319.651,70.000 319.376 C 70.000 319.101,70.585 318.149,71.300 317.262 C 72.621 315.622,73.692 314.119,75.335 311.600 C 76.196 310.280,78.693 306.680,80.701 303.864 C 81.197 303.169,82.060 301.916,82.619 301.081 C 83.177 300.245,83.896 299.461,84.217 299.338 C 84.538 299.215,84.800 298.888,84.800 298.612 C 84.800 298.336,85.340 297.431,86.000 296.600 C 86.660 295.769,87.200 294.846,87.200 294.548 C 87.200 294.251,87.560 293.782,88.000 293.507 C 88.440 293.232,88.800 292.813,88.800 292.574 C 88.800 292.336,89.430 291.255,90.200 290.172 C 90.970 289.089,91.600 287.986,91.600 287.721 C 91.600 287.456,91.825 287.096,92.100 286.920 C 92.375 286.744,93.311 285.520,94.180 284.200 C 95.050 282.880,96.535 280.871,97.480 279.736 C 98.426 278.601,99.204 277.521,99.209 277.336 C 99.214 277.151,99.579 276.550,100.021 276.000 C 100.463 275.450,101.485 274.010,102.291 272.800 C 103.098 271.590,104.262 270.009,104.879 269.286 C 105.495 268.563,106.000 267.719,106.000 267.409 C 106.000 267.099,106.315 266.610,106.700 266.323 C 107.085 266.035,107.718 265.170,108.107 264.400 C 108.496 263.630,109.358 262.280,110.021 261.400 C 111.679 259.201,113.254 256.938,114.163 255.450 C 114.583 254.762,115.618 253.358,116.463 252.328 C 117.308 251.299,118.000 250.302,118.000 250.113 C 118.000 249.924,118.533 249.147,119.184 248.385 C 119.835 247.623,120.375 246.785,120.384 246.523 C 120.393 246.260,120.715 245.809,121.100 245.519 C 122.033 244.818,123.377 243.001,124.590 240.800 C 125.136 239.810,126.120 238.280,126.776 237.400 C 127.432 236.520,128.252 235.303,128.597 234.696 C 130.134 231.992,135.482 224.931,136.201 224.655 C 136.531 224.528,136.800 224.168,136.800 223.853 C 136.800 223.262,139.061 219.564,140.216 218.265 C 140.576 217.861,141.122 216.928,141.429 216.192 C 141.736 215.457,142.174 214.740,142.401 214.599 C 142.628 214.459,143.521 213.232,144.384 211.872 C 145.248 210.512,146.232 209.040,146.571 208.600 C 147.199 207.786,147.899 206.851,151.338 202.236 C 154.396 198.133,154.451 196.637,151.672 193.248 C 149.837 191.010,146.728 186.713,144.729 183.653 C 143.920 182.414,142.885 180.922,142.429 180.337 C 141.973 179.752,141.600 179.135,141.600 178.966 C 141.600 178.550,138.788 174.377,137.907 173.484 C 137.518 173.091,137.200 172.613,137.200 172.422 C 137.200 172.232,136.615 171.349,135.900 170.462 C 135.185 169.574,134.150 168.196,133.600 167.400 C 133.050 166.604,132.413 165.738,132.184 165.476 C 131.156 164.300,128.400 160.233,128.400 159.893 C 128.400 159.544,127.140 157.818,125.850 156.400 C 125.550 156.070,125.001 155.205,124.631 154.479 C 124.260 153.752,123.652 152.825,123.279 152.419 C 122.905 152.013,122.189 151.078,121.688 150.340 C 121.186 149.603,120.336 148.370,119.798 147.600 C 119.260 146.830,118.626 145.758,118.389 145.218 C 118.152 144.679,117.194 143.329,116.261 142.218 C 115.328 141.108,113.893 139.210,113.073 138.000 C 112.252 136.790,110.953 134.990,110.185 134.000 C 109.417 133.010,108.524 131.627,108.200 130.927 C 107.877 130.227,107.411 129.530,107.164 129.378 C 106.918 129.226,106.420 128.446,106.058 127.646 C 105.696 126.845,105.073 125.832,104.674 125.395 C 103.782 124.419,102.185 122.120,101.534 120.877 C 101.268 120.369,100.448 119.314,99.711 118.533 C 98.975 117.752,98.012 116.458,97.572 115.657 C 97.132 114.856,96.232 113.480,95.572 112.600 C 93.969 110.461,92.372 108.173,91.418 106.650 C 90.988 105.962,90.040 104.590,89.311 103.600 C 88.582 102.610,87.620 101.035,87.174 100.100 C 86.728 99.165,86.209 98.400,86.021 98.400 C 85.707 98.400,85.274 97.800,83.000 94.213 C 82.560 93.518,81.840 92.487,81.400 91.921 C 80.960 91.356,80.330 90.483,80.000 89.983 C 79.670 89.483,78.933 88.517,78.362 87.837 C 77.791 87.157,76.674 85.610,75.880 84.400 C 75.085 83.190,74.075 81.731,73.635 81.159 C 73.196 80.586,72.619 79.641,72.354 79.059 C 72.089 78.476,71.738 78.000,71.574 78.000 C 71.283 78.000,69.076 74.386,68.155 72.400 C 67.899 71.850,67.039 70.701,66.242 69.846 C 64.932 68.441,62.955 65.848,59.912 61.546 C 59.314 60.700,58.526 59.421,58.160 58.704 C 57.795 57.987,57.244 57.130,56.937 56.800 C 56.009 55.804,54.442 53.476,53.836 52.192 C 53.523 51.527,52.891 50.645,52.433 50.230 C 51.975 49.815,51.600 49.303,51.600 49.091 C 51.600 48.879,51.060 48.091,50.400 47.339 C 49.740 46.587,49.200 45.728,49.200 45.429 C 49.200 45.130,48.922 44.779,48.582 44.648 C 48.242 44.518,47.700 43.779,47.377 43.006 C 47.054 42.233,46.657 41.592,46.495 41.581 C 46.333 41.571,45.570 40.653,44.800 39.541 C 44.030 38.429,42.995 37.017,42.500 36.402 C 42.005 35.787,41.600 35.156,41.600 35.000 C 41.600 34.844,41.150 34.181,40.600 33.527 C 39.258 31.932,39.422 29.733,40.960 28.706 C 41.202 28.544,61.272 28.409,85.561 28.406 L 129.722 28.400 131.761 30.500 " stroke="none" fill="#fbfcfc" fill-rule="evenodd"></path><path id="path2" d="M42.826 29.952 C 40.773 30.525,41.014 32.082,43.718 35.709 C 45.068 37.519,47.657 41.250,49.472 44.000 C 52.753 48.970,55.170 52.418,55.642 52.800 C 55.777 52.910,56.185 53.540,56.547 54.200 C 56.909 54.860,57.549 55.850,57.969 56.400 C 58.671 57.319,63.092 63.572,65.278 66.736 C 65.785 67.470,66.671 68.640,67.246 69.336 C 67.822 70.031,68.680 71.320,69.154 72.200 C 70.233 74.204,76.018 82.539,80.816 89.000 C 82.031 90.638,83.481 92.775,88.142 99.800 C 91.210 104.424,91.401 104.699,94.600 109.079 C 95.920 110.887,97.590 113.228,98.312 114.283 C 99.033 115.337,100.059 116.830,100.592 117.600 C 101.125 118.370,102.228 119.990,103.042 121.200 C 105.184 124.382,105.490 124.831,106.704 126.566 C 107.307 127.427,108.160 128.715,108.600 129.428 C 109.040 130.142,110.169 131.777,111.110 133.063 C 112.050 134.348,113.531 136.390,114.400 137.600 C 115.270 138.810,116.527 140.520,117.194 141.400 C 117.861 142.280,119.451 144.620,120.727 146.600 C 122.003 148.580,123.396 150.722,123.823 151.360 C 124.251 151.999,124.932 153.079,125.337 153.760 C 125.742 154.442,126.493 155.450,127.006 156.000 C 128.018 157.085,130.216 160.216,136.277 169.200 C 138.428 172.390,140.427 175.150,140.717 175.332 C 141.007 175.515,141.403 176.055,141.596 176.532 C 141.924 177.341,144.495 181.099,150.800 189.981 C 152.230 191.996,153.879 194.426,154.464 195.381 L 155.528 197.118 154.571 199.184 C 153.508 201.478,151.844 203.986,149.385 207.000 C 148.488 208.100,147.318 209.720,146.785 210.600 C 146.253 211.480,144.939 213.370,143.867 214.800 C 142.795 216.230,141.767 217.788,141.584 218.261 C 141.400 218.735,141.056 219.242,140.819 219.388 C 140.582 219.535,140.023 220.317,139.577 221.127 C 139.130 221.937,137.648 224.172,136.283 226.093 C 134.917 228.014,132.651 231.254,131.246 233.293 C 129.842 235.332,128.114 237.720,127.406 238.600 C 126.697 239.480,125.794 240.830,125.398 241.600 C 125.001 242.370,123.991 243.815,123.152 244.810 C 122.313 245.806,120.765 248.001,119.713 249.689 C 117.512 253.220,114.530 257.535,110.930 262.400 C 107.886 266.515,107.499 267.072,103.997 272.400 C 102.479 274.710,100.519 277.590,99.642 278.800 C 98.765 280.010,97.233 282.170,96.236 283.600 C 95.240 285.030,93.602 287.370,92.596 288.800 C 88.692 294.350,87.332 296.336,85.723 298.837 C 83.904 301.664,80.509 306.527,77.998 309.903 C 74.857 314.124,72.880 316.990,70.115 321.328 C 68.968 323.128,67.865 324.794,67.663 325.031 C 67.462 325.269,66.780 326.238,66.148 327.185 C 64.648 329.436,64.222 330.033,61.573 333.601 C 59.518 336.368,52.650 346.333,50.545 349.600 C 50.049 350.370,49.301 351.450,48.884 352.000 C 48.467 352.550,47.337 354.170,46.374 355.600 C 45.411 357.030,43.088 360.313,41.211 362.895 C 35.428 370.856,34.894 372.088,36.800 373.072 C 37.858 373.618,119.676 373.876,122.900 373.343 C 124.381 373.098,124.998 372.468,128.000 368.134 C 128.330 367.657,130.462 364.691,132.739 361.542 C 135.015 358.393,137.223 355.183,137.646 354.408 C 138.068 353.634,139.041 352.190,139.807 351.200 C 140.573 350.210,141.317 349.130,141.460 348.800 C 141.725 348.187,143.305 345.941,145.338 343.286 C 145.964 342.469,147.458 340.360,148.657 338.600 C 149.857 336.840,151.737 334.140,152.837 332.600 C 153.936 331.060,155.484 328.810,156.277 327.600 C 160.658 320.914,161.465 319.730,162.135 319.000 C 162.539 318.560,163.197 317.570,163.596 316.800 C 163.996 316.030,165.195 314.375,166.261 313.122 C 168.084 310.981,172.309 304.848,175.000 300.435 C 175.660 299.353,177.420 296.788,178.912 294.734 C 180.404 292.680,183.088 288.840,184.877 286.200 C 186.665 283.560,188.250 281.310,188.398 281.200 C 188.639 281.021,192.113 276.089,193.564 273.865 C 201.092 262.329,201.192 262.293,205.921 269.459 C 207.496 271.846,209.165 274.340,209.629 275.000 C 210.093 275.660,211.995 278.360,213.855 281.000 C 215.716 283.640,218.085 287.060,219.119 288.600 C 220.154 290.140,221.241 291.654,221.535 291.964 C 222.080 292.537,223.554 294.666,225.000 296.965 C 225.440 297.665,226.803 299.669,228.030 301.419 C 229.256 303.168,230.786 305.435,231.430 306.455 C 232.073 307.476,233.876 309.996,235.436 312.055 C 238.694 316.357,239.780 317.954,244.400 325.245 C 245.390 326.807,246.925 329.011,247.811 330.143 C 249.143 331.844,251.969 335.823,256.517 342.400 C 256.897 342.950,257.702 344.099,258.304 344.953 C 258.907 345.808,259.850 347.183,260.400 348.008 C 264.405 354.020,267.496 358.489,270.600 362.755 C 272.580 365.476,275.018 368.888,276.017 370.337 C 277.117 371.933,278.221 373.080,278.817 373.246 C 281.206 373.912,364.976 373.632,365.943 372.955 C 367.009 372.208,366.876 370.947,365.552 369.234 C 365.113 368.665,364.055 367.120,363.201 365.800 C 361.603 363.328,355.450 354.537,354.139 352.851 C 353.732 352.329,353.130 351.499,352.800 351.007 C 352.470 350.515,351.468 349.052,350.574 347.756 C 349.679 346.460,346.948 342.419,344.506 338.776 C 342.063 335.133,339.420 331.382,338.633 330.440 C 336.570 327.970,331.603 320.556,329.362 316.600 C 328.988 315.940,327.923 314.500,326.996 313.400 C 326.068 312.300,325.103 311.004,324.851 310.521 C 324.600 310.037,323.340 308.237,322.052 306.521 C 320.763 304.804,319.411 302.860,319.047 302.200 C 318.682 301.540,317.759 300.190,316.996 299.200 C 316.232 298.210,315.304 296.950,314.934 296.400 C 312.253 292.418,311.299 290.968,310.587 289.795 C 310.139 289.057,309.464 288.113,309.087 287.696 C 308.709 287.278,308.400 286.817,308.400 286.671 C 308.400 286.418,303.488 279.543,301.491 277.000 C 300.380 275.585,299.014 273.573,295.655 268.400 C 294.298 266.310,293.054 264.420,292.892 264.200 C 291.472 262.279,284.474 252.540,284.028 251.865 C 281.259 247.679,278.105 243.085,276.979 241.600 C 276.228 240.610,275.385 239.342,275.107 238.783 C 274.828 238.223,272.620 235.020,270.200 231.666 C 264.047 223.137,263.095 221.790,262.312 220.518 C 259.733 216.328,252.005 205.283,249.247 201.844 C 246.296 198.166,246.570 196.808,251.634 190.000 C 253.189 187.910,255.872 184.040,257.597 181.400 C 259.322 178.760,261.112 176.150,261.574 175.600 C 262.036 175.050,263.028 173.610,263.779 172.400 C 264.529 171.190,265.848 169.300,266.710 168.200 C 267.572 167.100,269.052 165.030,269.999 163.600 C 270.945 162.170,272.296 160.280,273.001 159.400 C 273.705 158.520,274.582 157.260,274.949 156.600 C 275.316 155.940,276.232 154.590,276.984 153.600 C 277.736 152.610,279.089 150.608,279.991 149.152 C 281.621 146.516,285.019 141.706,288.679 136.853 C 289.736 135.452,290.960 133.714,291.400 132.991 C 292.125 131.799,296.024 126.009,301.089 118.600 C 302.142 117.060,303.633 114.959,304.402 113.930 C 307.076 110.353,309.405 107.098,310.200 105.825 C 311.016 104.518,316.646 96.134,319.618 91.800 C 320.523 90.480,321.941 88.590,322.770 87.600 C 323.599 86.610,324.578 85.260,324.947 84.600 C 325.315 83.940,326.234 82.590,326.990 81.600 C 327.746 80.610,329.202 78.450,330.224 76.800 C 331.246 75.150,332.785 72.810,333.643 71.600 C 334.502 70.390,335.518 68.950,335.902 68.401 C 336.286 67.851,337.680 65.932,339.000 64.136 C 340.320 62.339,341.709 60.359,342.086 59.735 C 342.463 59.111,343.593 57.430,344.597 56.000 C 345.601 54.570,346.595 53.130,346.805 52.800 C 347.016 52.470,347.629 51.570,348.169 50.800 C 348.709 50.030,350.627 47.240,352.431 44.600 C 354.235 41.960,356.548 38.720,357.571 37.400 C 361.606 32.196,361.986 30.417,359.181 29.856 C 358.477 29.715,339.049 29.600,316.009 29.600 L 274.118 29.600 272.766 30.511 C 272.022 31.013,269.971 33.351,268.207 35.709 C 265.432 39.418,263.744 41.873,258.400 49.977 C 256.895 52.259,255.490 54.261,252.886 57.836 C 251.589 59.616,249.320 62.856,247.844 65.036 C 246.368 67.216,244.368 70.080,243.400 71.400 C 242.432 72.720,241.631 73.928,241.620 74.085 C 241.609 74.242,240.783 75.502,239.785 76.885 C 238.787 78.268,237.486 80.120,236.893 81.000 C 236.301 81.880,234.732 84.075,233.408 85.879 C 228.441 92.642,225.200 97.427,225.200 97.997 C 225.200 98.171,224.647 99.008,223.972 99.857 C 222.158 102.135,216.890 109.550,213.356 114.800 C 211.653 117.330,209.906 119.798,209.474 120.285 C 209.042 120.772,208.489 121.516,208.244 121.939 C 201.818 133.054,201.330 133.057,194.000 122.002 C 187.937 112.860,184.828 108.304,183.627 106.800 C 182.836 105.810,181.505 104.010,180.671 102.800 C 179.837 101.590,178.352 99.520,177.372 98.200 C 176.392 96.880,175.432 95.440,175.239 95.000 C 175.047 94.560,174.194 93.196,173.344 91.969 C 171.883 89.858,170.695 88.175,162.009 75.901 C 160.024 73.097,158.400 70.653,158.400 70.471 C 158.400 70.289,157.950 69.717,157.400 69.200 C 156.850 68.683,156.400 68.044,156.400 67.779 C 156.400 67.515,156.131 67.075,155.802 66.802 C 155.473 66.529,154.294 64.842,153.181 63.053 C 152.068 61.264,149.824 58.000,148.194 55.800 C 144.453 50.751,138.490 42.054,137.270 39.867 C 136.758 38.950,135.676 37.390,134.864 36.400 C 134.053 35.410,132.862 33.821,132.219 32.870 C 129.826 29.331,133.613 29.595,85.916 29.640 C 62.752 29.662,43.362 29.802,42.826 29.952 M129.072 31.680 C 129.802 31.945,130.400 32.298,130.400 32.465 C 130.400 32.632,131.168 33.721,132.106 34.884 C 134.370 37.691,136.800 41.125,136.800 41.516 C 136.800 41.689,137.333 42.453,137.984 43.215 C 138.635 43.977,139.175 44.797,139.184 45.038 C 139.193 45.279,139.575 45.815,140.033 46.230 C 140.491 46.645,141.119 47.527,141.427 48.192 C 141.736 48.856,142.618 50.210,143.386 51.200 C 144.155 52.190,145.072 53.513,145.423 54.140 C 146.713 56.442,153.058 65.179,154.900 67.191 C 155.505 67.852,156.000 68.664,156.000 68.996 C 156.000 69.328,156.147 69.600,156.326 69.600 C 156.506 69.600,157.077 70.355,157.596 71.279 C 158.865 73.536,162.593 79.229,163.373 80.100 C 163.718 80.485,164.000 80.901,164.000 81.024 C 164.000 81.221,164.944 82.557,167.485 85.956 C 167.878 86.482,168.565 87.292,169.012 87.756 C 169.458 88.220,170.047 89.050,170.320 89.600 C 170.594 90.150,171.258 91.230,171.796 92.000 C 172.335 92.770,173.153 93.940,173.615 94.600 C 174.077 95.260,174.848 96.418,175.328 97.174 C 176.202 98.551,176.376 98.807,178.600 101.990 C 179.260 102.934,180.250 104.385,180.800 105.213 C 181.350 106.042,183.009 108.402,184.487 110.460 C 185.964 112.517,187.584 114.796,188.087 115.524 C 188.589 116.252,189.585 117.574,190.300 118.462 C 191.015 119.349,191.600 120.329,191.600 120.638 C 191.600 120.947,191.777 121.200,191.993 121.200 C 192.210 121.200,192.843 122.100,193.400 123.200 C 193.957 124.300,194.557 125.200,194.733 125.200 C 194.908 125.200,195.352 125.830,195.719 126.600 C 196.087 127.370,196.550 128.000,196.750 128.000 C 196.950 128.000,197.218 128.419,197.347 128.931 C 197.937 131.282,201.279 132.909,203.021 131.694 C 203.682 131.232,209.200 122.931,209.200 122.398 C 209.200 122.252,209.937 121.338,210.837 120.367 C 211.738 119.395,212.715 118.138,213.010 117.573 C 213.304 117.008,214.748 114.938,216.219 112.973 C 217.689 111.008,219.094 108.950,219.340 108.400 C 219.586 107.850,220.105 107.165,220.494 106.877 C 220.882 106.590,221.207 106.140,221.216 105.877 C 221.225 105.615,221.765 104.777,222.416 104.015 C 223.067 103.253,223.600 102.426,223.600 102.177 C 223.600 101.928,223.955 101.402,224.390 101.009 C 224.824 100.616,225.298 99.913,225.444 99.447 C 225.589 98.981,226.224 98.009,226.854 97.286 C 227.484 96.563,228.000 95.708,228.000 95.386 C 228.000 95.064,228.169 94.800,228.375 94.800 C 228.581 94.800,229.611 93.495,230.665 91.900 C 231.719 90.305,233.317 88.100,234.217 87.000 C 235.117 85.900,236.426 84.100,237.126 83.000 C 237.827 81.900,238.681 80.640,239.025 80.200 C 240.059 78.877,242.386 75.074,242.628 74.312 C 242.752 73.920,243.019 73.600,243.222 73.600 C 243.424 73.600,243.852 72.972,244.173 72.204 C 244.493 71.436,245.216 70.348,245.778 69.786 C 246.340 69.224,246.800 68.600,246.800 68.400 C 246.800 68.200,247.263 67.533,247.828 66.918 C 249.472 65.129,251.339 62.617,253.000 59.960 C 253.220 59.608,253.940 58.549,254.600 57.606 C 256.278 55.211,257.862 52.791,258.585 51.522 C 258.922 50.928,259.649 49.957,260.199 49.363 C 260.750 48.769,261.200 48.046,261.200 47.756 C 261.200 47.466,261.548 47.042,261.973 46.814 C 262.398 46.587,262.874 45.998,263.030 45.507 C 263.186 45.015,264.053 43.641,264.957 42.454 C 265.861 41.266,267.230 39.370,268.000 38.239 C 270.439 34.657,271.707 33.026,272.768 32.102 L 273.800 31.204 315.726 31.202 C 355.677 31.200,358.410 31.264,359.541 32.229 C 359.619 32.295,358.629 33.726,357.341 35.409 C 354.801 38.729,354.820 38.702,351.793 43.400 C 350.659 45.160,349.386 47.112,348.965 47.737 C 348.544 48.362,347.930 49.352,347.600 49.937 C 347.269 50.522,346.663 51.361,346.253 51.800 C 344.969 53.177,337.209 64.096,335.931 66.326 C 335.260 67.495,334.281 68.882,333.756 69.408 C 333.230 69.934,332.800 70.610,332.800 70.912 C 332.800 71.214,332.350 71.883,331.800 72.400 C 331.250 72.917,330.797 73.623,330.793 73.970 C 330.789 74.316,330.338 75.026,329.789 75.546 C 329.241 76.066,328.685 76.921,328.553 77.446 C 328.421 77.971,328.161 78.400,327.976 78.400 C 327.790 78.400,327.061 79.255,326.355 80.300 C 325.650 81.345,324.016 83.640,322.725 85.400 C 317.054 93.128,316.400 94.053,316.400 94.347 C 316.400 94.518,315.865 95.365,315.211 96.229 C 314.557 97.093,314.017 98.096,314.011 98.457 C 314.005 98.819,313.738 99.215,313.418 99.338 C 313.098 99.461,312.487 100.245,312.061 101.081 C 311.634 101.916,310.906 102.943,310.443 103.362 C 309.979 103.781,309.600 104.295,309.600 104.504 C 309.600 104.883,308.267 106.676,306.853 108.200 C 306.445 108.640,305.371 110.080,304.466 111.400 C 303.562 112.720,302.279 114.569,301.615 115.509 C 300.950 116.449,300.042 117.934,299.595 118.809 C 299.149 119.684,298.641 120.400,298.466 120.400 C 298.291 120.400,297.841 120.985,297.465 121.700 C 296.702 123.151,295.210 125.319,293.999 126.734 C 293.560 127.248,293.200 127.901,293.200 128.185 C 293.200 128.469,292.906 128.946,292.546 129.245 C 292.186 129.544,291.474 130.421,290.963 131.194 C 290.453 131.967,289.315 133.590,288.434 134.800 C 286.068 138.050,283.854 141.193,283.400 141.948 C 283.180 142.313,282.526 143.240,281.946 144.006 C 281.367 144.773,280.770 145.805,280.619 146.300 C 280.469 146.795,280.182 147.200,279.981 147.200 C 279.780 147.200,279.245 147.875,278.792 148.700 C 278.339 149.525,277.522 150.830,276.978 151.600 C 276.433 152.370,275.765 153.344,275.494 153.764 C 275.222 154.184,274.146 155.624,273.103 156.964 C 271.020 159.638,267.859 164.124,266.587 166.212 C 266.139 166.945,265.488 167.873,265.140 168.273 C 264.537 168.965,264.179 169.578,262.498 172.800 C 262.096 173.570,261.009 175.010,260.083 176.000 C 259.156 176.990,258.120 178.385,257.780 179.100 C 257.440 179.815,257.004 180.400,256.811 180.400 C 256.618 180.400,256.041 181.110,255.530 181.978 C 254.533 183.670,251.562 187.991,249.601 190.600 C 248.940 191.480,248.034 192.958,247.588 193.883 C 247.142 194.809,246.602 195.675,246.389 195.807 C 245.738 196.209,245.953 198.278,246.832 200.088 C 247.928 202.344,247.917 202.327,250.000 205.048 C 250.990 206.342,252.316 208.210,252.947 209.200 C 253.577 210.190,254.879 211.925,255.840 213.056 C 256.800 214.186,257.774 215.536,258.003 216.056 C 258.374 216.896,258.977 217.799,261.035 220.600 C 261.736 221.555,263.118 223.681,264.138 225.375 C 264.544 226.049,265.191 226.960,265.575 227.400 C 265.960 227.840,267.373 229.862,268.715 231.893 C 270.058 233.925,271.343 235.815,271.572 236.093 C 272.590 237.333,273.926 239.173,275.369 241.322 C 276.226 242.599,277.223 243.859,277.584 244.122 C 277.945 244.385,278.473 245.172,278.757 245.871 C 279.041 246.570,279.617 247.453,280.037 247.833 C 280.456 248.213,280.803 248.721,280.808 248.962 C 280.819 249.645,288.144 260.221,291.223 264.000 C 292.029 264.990,293.009 266.430,293.400 267.200 C 293.791 267.970,294.773 269.410,295.583 270.400 C 296.393 271.390,297.293 272.792,297.583 273.515 C 297.873 274.239,298.445 275.010,298.855 275.229 C 299.265 275.449,299.600 275.877,299.600 276.180 C 299.600 276.484,299.959 277.152,300.397 277.666 C 300.836 278.180,301.911 279.680,302.788 281.000 C 305.258 284.719,305.320 284.806,306.700 286.490 C 307.415 287.362,308.000 288.226,308.000 288.409 C 308.000 288.593,308.315 289.056,308.700 289.438 C 309.085 289.820,309.670 290.536,310.000 291.029 C 314.049 297.078,315.275 298.800,315.533 298.800 C 315.702 298.800,316.058 299.404,316.325 300.143 C 316.592 300.881,317.168 301.809,317.605 302.205 C 318.042 302.600,318.400 303.138,318.400 303.399 C 318.400 303.846,320.003 306.131,325.697 313.800 C 325.861 314.020,326.626 314.982,327.397 315.938 C 328.169 316.894,328.800 317.896,328.800 318.166 C 328.800 318.435,329.250 319.047,329.800 319.525 C 330.350 320.003,330.800 320.652,330.800 320.967 C 330.800 321.281,331.223 322.047,331.740 322.669 C 332.258 323.291,332.753 324.016,332.840 324.280 C 332.928 324.543,333.950 326.073,335.111 327.680 C 339.536 333.802,342.813 338.478,343.239 339.274 C 343.761 340.248,346.125 343.382,346.993 344.250 C 347.327 344.584,347.600 345.104,347.600 345.406 C 347.600 345.708,347.934 346.190,348.343 346.477 C 348.751 346.765,349.217 347.417,349.378 347.926 C 349.539 348.436,350.150 349.426,350.735 350.128 C 351.867 351.483,352.395 352.276,353.445 354.200 C 353.805 354.860,355.652 357.442,357.550 359.937 C 359.447 362.433,361.385 365.110,361.856 365.887 C 362.327 366.663,362.901 367.415,363.131 367.558 C 363.697 367.907,364.400 369.829,364.400 371.026 L 364.400 372.000 321.757 372.000 L 279.113 372.000 277.358 370.100 C 276.393 369.055,275.490 367.840,275.351 367.400 C 275.212 366.960,274.846 366.330,274.538 366.000 C 274.230 365.670,273.578 364.822,273.089 364.115 C 272.600 363.408,271.615 362.004,270.900 360.995 C 270.185 359.986,269.600 359.088,269.600 358.999 C 269.600 358.637,265.936 353.630,264.618 352.192 C 263.838 351.340,263.200 350.519,263.200 350.367 C 263.200 349.883,259.947 345.200,259.610 345.200 C 259.432 345.200,259.177 344.764,259.043 344.231 C 258.910 343.698,258.388 342.753,257.885 342.131 C 257.381 341.509,256.748 340.550,256.478 340.000 C 256.207 339.450,255.446 338.280,254.787 337.400 C 254.127 336.520,252.942 334.854,252.153 333.697 C 251.363 332.540,250.286 331.254,249.759 330.839 C 249.232 330.424,248.800 329.964,248.800 329.816 C 248.800 329.668,248.350 328.957,247.800 328.236 C 247.250 327.514,246.800 326.720,246.800 326.469 C 246.800 326.219,246.351 325.516,245.803 324.907 C 244.384 323.333,242.902 321.202,242.226 319.768 C 241.907 319.091,241.366 318.304,241.023 318.019 C 240.680 317.735,240.398 317.299,240.396 317.051 C 240.393 316.651,238.575 314.064,237.126 312.395 C 236.837 312.061,236.399 311.341,236.153 310.795 C 235.907 310.248,234.872 308.777,233.853 307.527 C 232.834 306.277,232.000 305.172,232.000 305.073 C 232.000 304.659,228.708 300.000,228.415 300.000 C 228.240 300.000,227.879 299.473,227.612 298.829 C 227.345 298.185,226.879 297.562,226.576 297.446 C 226.273 297.330,225.761 296.601,225.437 295.827 C 225.113 295.052,224.478 294.021,224.024 293.534 C 223.571 293.047,223.200 292.419,223.200 292.139 C 223.200 291.858,222.840 291.435,222.400 291.200 C 221.960 290.965,221.600 290.539,221.600 290.255 C 221.600 289.511,216.144 281.580,212.207 276.600 C 211.859 276.160,210.868 274.720,210.005 273.400 C 209.142 272.080,208.068 270.566,207.618 270.037 C 207.168 269.507,206.800 268.917,206.800 268.727 C 206.800 267.891,203.817 264.138,202.666 263.527 C 200.592 262.424,198.527 263.308,197.373 265.792 C 197.064 266.456,196.178 267.810,195.403 268.800 C 194.629 269.790,193.644 271.320,193.214 272.200 C 192.785 273.080,191.891 274.520,191.227 275.400 C 190.563 276.280,189.561 277.630,189.000 278.400 C 188.439 279.170,187.490 280.449,186.890 281.243 C 184.001 285.066,181.813 288.197,181.225 289.351 C 180.868 290.051,180.255 290.979,179.863 291.412 C 178.305 293.133,176.770 295.381,176.548 296.266 C 176.419 296.780,176.156 297.200,175.965 297.200 C 175.773 297.200,175.249 297.875,174.801 298.700 C 174.353 299.525,173.368 301.010,172.613 302.000 C 171.857 302.990,170.031 305.584,168.555 307.765 C 167.078 309.945,165.618 312.015,165.309 312.365 C 164.167 313.658,162.008 316.609,162.004 316.882 C 162.002 317.037,161.095 318.374,159.990 319.853 C 158.884 321.332,157.878 322.947,157.754 323.442 C 157.629 323.937,157.287 324.434,156.993 324.547 C 156.699 324.660,156.095 325.573,155.652 326.576 C 155.208 327.579,154.667 328.400,154.449 328.400 C 154.232 328.400,153.925 328.805,153.768 329.300 C 153.611 329.795,153.048 330.650,152.516 331.200 C 151.241 332.518,148.004 336.707,147.442 337.765 C 147.198 338.224,146.279 339.647,145.399 340.926 C 144.520 342.205,143.613 343.581,143.384 343.983 C 143.156 344.385,142.713 345.023,142.400 345.400 C 142.087 345.777,141.644 346.396,141.416 346.776 C 141.187 347.156,140.280 348.509,139.400 349.781 C 138.520 351.054,137.350 352.771,136.800 353.598 C 134.969 356.350,134.215 357.396,133.773 357.800 C 133.532 358.020,132.643 359.280,131.798 360.600 C 130.290 362.954,128.934 364.808,127.850 366.000 C 127.550 366.330,127.025 367.140,126.685 367.800 C 126.344 368.460,125.441 369.675,124.679 370.500 L 123.292 372.000 80.693 372.000 L 38.093 372.000 37.880 370.900 C 37.724 370.096,37.954 369.438,38.733 368.455 C 39.320 367.715,40.227 366.455,40.749 365.655 C 41.271 364.855,42.108 363.750,42.610 363.200 C 43.112 362.650,44.704 360.400,46.147 358.200 C 47.589 356.000,49.137 353.722,49.585 353.137 C 50.033 352.552,50.400 351.883,50.400 351.651 C 50.400 351.418,50.940 350.675,51.600 350.000 C 52.260 349.325,52.800 348.540,52.800 348.256 C 52.800 347.972,53.250 347.317,53.800 346.800 C 54.350 346.283,54.800 345.691,54.800 345.483 C 54.800 345.275,55.295 344.519,55.900 343.802 C 56.858 342.666,58.825 339.944,60.800 337.019 C 63.976 332.317,66.179 329.136,67.183 327.800 C 67.844 326.920,68.704 325.576,69.093 324.812 C 69.482 324.049,70.115 323.104,70.500 322.712 C 70.885 322.321,71.200 321.837,71.200 321.638 C 71.200 321.439,71.831 320.494,72.603 319.538 C 74.590 317.076,74.515 317.182,75.689 315.200 C 76.276 314.210,77.351 312.738,78.078 311.930 C 78.805 311.121,79.811 309.861,80.312 309.130 C 80.814 308.398,81.665 307.170,82.204 306.400 C 82.742 305.630,83.412 304.552,83.691 304.005 C 83.971 303.459,84.497 302.712,84.859 302.346 C 85.222 301.980,85.753 301.033,86.040 300.241 C 86.326 299.448,86.700 298.800,86.870 298.800 C 87.040 298.800,87.478 298.215,87.844 297.500 C 88.209 296.785,88.754 296.056,89.054 295.880 C 89.354 295.704,89.897 294.984,90.259 294.280 C 90.621 293.576,91.943 291.740,93.197 290.200 C 94.450 288.660,96.165 286.230,97.008 284.800 C 97.852 283.370,99.050 281.609,99.671 280.886 C 100.292 280.163,100.800 279.425,100.800 279.244 C 100.800 279.064,101.250 278.431,101.800 277.838 C 102.350 277.244,102.800 276.507,102.800 276.199 C 102.800 275.892,103.037 275.496,103.327 275.320 C 103.617 275.144,104.543 273.920,105.383 272.600 C 107.610 269.104,109.165 266.867,110.987 264.541 C 112.771 262.263,116.886 256.472,117.200 255.797 C 117.310 255.561,117.895 254.728,118.500 253.946 C 119.105 253.164,119.600 252.339,119.600 252.111 C 119.600 251.884,119.880 251.465,120.223 251.181 C 120.566 250.896,121.107 250.109,121.426 249.432 C 122.043 248.123,123.556 245.840,124.544 244.730 C 124.871 244.362,125.347 243.673,125.600 243.200 C 125.853 242.727,126.362 242.020,126.730 241.630 C 127.099 241.240,127.736 240.507,128.146 240.002 C 129.191 238.715,135.991 228.515,137.200 226.420 C 137.750 225.467,138.570 224.308,139.022 223.844 C 139.474 223.380,140.688 221.740,141.720 220.200 C 142.752 218.660,144.126 216.680,144.773 215.800 C 146.189 213.875,149.641 208.941,150.200 208.045 C 150.420 207.692,151.095 206.811,151.700 206.087 C 152.305 205.364,152.800 204.598,152.800 204.386 C 152.800 204.174,153.120 203.680,153.512 203.288 C 154.623 202.177,156.400 198.529,156.400 197.360 C 156.400 196.248,153.801 191.600,153.179 191.600 C 152.979 191.600,152.706 191.163,152.572 190.629 C 152.438 190.096,151.984 189.348,151.564 188.967 C 151.144 188.587,150.796 188.079,150.791 187.838 C 150.786 187.597,150.419 186.950,149.975 186.400 C 149.275 185.533,148.386 184.267,144.916 179.200 C 144.539 178.650,143.407 177.210,142.400 176.000 C 141.392 174.790,140.347 173.350,140.076 172.800 C 139.512 171.657,137.932 169.315,137.066 168.339 C 136.743 167.976,136.364 167.317,136.224 166.875 C 136.083 166.432,135.480 165.432,134.884 164.652 C 134.288 163.871,133.393 162.641,132.896 161.916 C 130.884 158.985,126.708 153.390,126.381 153.188 C 126.188 153.069,125.764 152.334,125.439 151.554 C 125.113 150.774,124.566 149.904,124.223 149.619 C 123.880 149.335,123.600 148.876,123.600 148.600 C 123.600 148.324,123.306 147.854,122.946 147.555 C 122.310 147.028,121.039 145.258,119.400 142.619 C 117.837 140.103,116.276 137.797,116.003 137.600 C 115.850 137.490,114.410 135.465,112.802 133.100 C 111.194 130.735,109.726 128.800,109.540 128.800 C 109.353 128.800,109.200 128.561,109.200 128.269 C 109.200 127.977,108.231 126.475,107.047 124.932 C 105.863 123.388,104.770 121.737,104.620 121.262 C 104.469 120.788,103.998 120.213,103.573 119.986 C 103.148 119.758,102.800 119.383,102.800 119.151 C 102.800 118.920,102.299 117.981,101.686 117.065 C 101.073 116.149,100.398 115.106,100.186 114.747 C 99.162 113.014,95.349 107.601,94.023 106.000 C 93.203 105.010,91.767 103.075,90.831 101.700 C 89.895 100.325,88.966 99.200,88.765 99.200 C 88.564 99.200,88.400 98.969,88.400 98.687 C 88.400 98.082,86.350 94.762,83.923 91.440 C 82.976 90.141,82.004 88.748,81.764 88.342 C 81.525 87.937,81.052 87.289,80.713 86.903 C 80.374 86.516,79.798 85.660,79.433 85.000 C 79.068 84.340,78.232 83.080,77.575 82.200 C 76.918 81.320,75.568 79.430,74.574 78.000 C 71.466 73.524,70.763 72.611,70.173 72.281 C 69.858 72.105,69.600 71.612,69.600 71.187 C 69.600 70.762,69.150 69.916,68.599 69.307 C 67.650 68.258,67.181 67.559,64.002 62.463 C 63.269 61.288,62.474 60.114,62.235 59.853 C 61.111 58.630,59.260 56.077,58.670 54.936 C 58.311 54.241,57.878 53.611,57.708 53.536 C 57.539 53.461,57.087 52.950,56.705 52.400 C 53.298 47.497,51.272 44.512,50.587 43.388 C 50.139 42.655,49.464 41.713,49.087 41.296 C 48.709 40.878,48.400 40.425,48.400 40.288 C 48.400 40.151,47.545 38.845,46.500 37.386 C 45.455 35.928,44.396 34.374,44.146 33.934 C 43.897 33.493,43.490 32.930,43.242 32.682 C 41.849 31.289,43.619 31.229,86.172 31.214 C 117.549 31.203,128.069 31.318,129.072 31.680 " stroke="none" fill="#63ccfc" fill-rule="evenodd"></path><path id="path3" d="M40.960 28.706 C 39.422 29.733,39.258 31.932,40.600 33.527 C 41.150 34.181,41.600 34.844,41.600 35.000 C 41.600 35.156,42.005 35.787,42.500 36.402 C 42.995 37.017,44.030 38.429,44.800 39.541 C 45.570 40.653,46.333 41.571,46.495 41.581 C 46.657 41.592,47.054 42.233,47.377 43.006 C 47.700 43.779,48.242 44.518,48.582 44.648 C 48.922 44.779,49.200 45.130,49.200 45.429 C 49.200 45.728,49.740 46.587,50.400 47.339 C 51.060 48.091,51.600 48.879,51.600 49.091 C 51.600 49.303,51.975 49.815,52.433 50.230 C 52.891 50.645,53.523 51.527,53.836 52.192 C 54.442 53.476,56.009 55.804,56.937 56.800 C 57.244 57.130,57.795 57.987,58.160 58.704 C 58.526 59.421,59.314 60.700,59.912 61.546 C 62.955 65.848,64.932 68.441,66.242 69.846 C 67.039 70.701,67.899 71.850,68.155 72.400 C 69.076 74.386,71.283 78.000,71.574 78.000 C 71.738 78.000,72.089 78.476,72.354 79.059 C 72.619 79.641,73.196 80.586,73.635 81.159 C 74.075 81.731,75.085 83.190,75.880 84.400 C 76.674 85.610,77.791 87.157,78.362 87.837 C 78.933 88.517,79.670 89.483,80.000 89.983 C 80.330 90.483,80.960 91.356,81.400 91.921 C 81.840 92.487,82.560 93.518,83.000 94.213 C 85.274 97.800,85.707 98.400,86.021 98.400 C 86.209 98.400,86.728 99.165,87.174 100.100 C 87.620 101.035,88.582 102.610,89.311 103.600 C 90.040 104.590,90.988 105.962,91.418 106.650 C 92.372 108.173,93.969 110.461,95.572 112.600 C 96.232 113.480,97.132 114.856,97.572 115.657 C 98.012 116.458,98.975 117.752,99.711 118.533 C 100.448 119.314,101.268 120.369,101.534 120.877 C 102.185 122.120,103.782 124.419,104.674 125.395 C 105.073 125.832,105.696 126.845,106.058 127.646 C 106.420 128.446,106.918 129.226,107.164 129.378 C 107.411 129.530,107.877 130.227,108.200 130.927 C 108.524 131.627,109.417 133.010,110.185 134.000 C 110.953 134.990,112.252 136.790,113.073 138.000 C 113.893 139.210,115.328 141.108,116.261 142.218 C 117.194 143.329,118.152 144.679,118.389 145.218 C 118.626 145.758,119.260 146.830,119.798 147.600 C 120.336 148.370,121.186 149.603,121.688 150.340 C 122.189 151.078,122.905 152.013,123.279 152.419 C 123.652 152.825,124.260 153.752,124.631 154.479 C 125.001 155.205,125.550 156.070,125.850 156.400 C 127.140 157.818,128.400 159.544,128.400 159.893 C 128.400 160.233,131.156 164.300,132.184 165.476 C 132.413 165.738,133.050 166.604,133.600 167.400 C 134.150 168.196,135.185 169.574,135.900 170.462 C 136.615 171.349,137.200 172.232,137.200 172.422 C 137.200 172.613,137.518 173.091,137.907 173.484 C 138.788 174.377,141.600 178.550,141.600 178.966 C 141.600 179.135,141.973 179.752,142.429 180.337 C 142.885 180.922,143.920 182.414,144.729 183.653 C 146.728 186.713,149.837 191.010,151.672 193.248 C 154.451 196.637,154.396 198.133,151.338 202.236 C 147.899 206.851,147.199 207.786,146.571 208.600 C 146.232 209.040,145.248 210.512,144.384 211.872 C 143.521 213.232,142.628 214.459,142.401 214.599 C 142.174 214.740,141.736 215.457,141.429 216.192 C 141.122 216.928,140.576 217.861,140.216 218.265 C 139.061 219.564,136.800 223.262,136.800 223.853 C 136.800 224.168,136.531 224.528,136.201 224.655 C 135.482 224.931,130.134 231.992,128.597 234.696 C 128.252 235.303,127.432 236.520,126.776 237.400 C 126.120 238.280,125.136 239.810,124.590 240.800 C 123.377 243.001,122.033 244.818,121.100 245.519 C 120.715 245.809,120.393 246.260,120.384 246.523 C 120.375 246.785,119.835 247.623,119.184 248.385 C 118.533 249.147,118.000 249.924,118.000 250.113 C 118.000 250.302,117.308 251.299,116.463 252.328 C 115.618 253.358,114.583 254.762,114.163 255.450 C 113.254 256.938,111.679 259.201,110.021 261.400 C 109.358 262.280,108.496 263.630,108.107 264.400 C 107.718 265.170,107.085 266.035,106.700 266.323 C 106.315 266.610,106.000 267.099,106.000 267.409 C 106.000 267.719,105.495 268.563,104.879 269.286 C 104.262 270.009,103.098 271.590,102.291 272.800 C 101.485 274.010,100.463 275.450,100.021 276.000 C 99.579 276.550,99.214 277.151,99.209 277.336 C 99.204 277.521,98.426 278.601,97.480 279.736 C 96.535 280.871,95.050 282.880,94.180 284.200 C 93.311 285.520,92.375 286.744,92.100 286.920 C 91.825 287.096,91.600 287.456,91.600 287.721 C 91.600 287.986,90.970 289.089,90.200 290.172 C 89.430 291.255,88.800 292.336,88.800 292.574 C 88.800 292.813,88.440 293.232,88.000 293.507 C 87.560 293.782,87.200 294.251,87.200 294.548 C 87.200 294.846,86.660 295.769,86.000 296.600 C 85.340 297.431,84.800 298.336,84.800 298.612 C 84.800 298.888,84.538 299.215,84.217 299.338 C 83.896 299.461,83.177 300.245,82.619 301.081 C 82.060 301.916,81.197 303.169,80.701 303.864 C 78.693 306.680,76.196 310.280,75.335 311.600 C 73.692 314.119,72.621 315.622,71.300 317.262 C 70.585 318.149,70.000 319.101,70.000 319.376 C 70.000 319.651,69.640 320.202,69.200 320.600 C 68.760 320.998,68.400 321.549,68.400 321.824 C 68.400 322.267,67.312 323.746,64.789 326.734 C 64.355 327.248,64.000 327.881,64.000 328.141 C 64.000 328.401,63.220 329.511,62.267 330.607 C 61.314 331.703,59.872 333.590,59.063 334.800 C 58.254 336.010,57.304 337.360,56.953 337.800 C 56.602 338.240,56.061 339.185,55.752 339.900 C 55.442 340.615,55.015 341.200,54.803 341.200 C 54.590 341.200,54.029 341.959,53.555 342.888 C 52.565 344.828,51.143 346.937,50.689 347.137 C 50.518 347.212,50.043 347.932,49.632 348.737 C 49.221 349.542,48.506 350.543,48.043 350.962 C 47.579 351.381,47.200 351.911,47.200 352.140 C 47.200 352.369,46.770 353.016,46.245 353.578 C 44.970 354.943,41.200 360.468,41.200 360.972 C 41.200 361.192,40.836 361.738,40.391 362.186 C 38.996 363.589,37.200 366.088,37.200 366.624 C 37.200 366.907,36.771 367.649,36.246 368.273 C 33.700 371.298,33.736 374.059,36.331 374.814 C 37.344 375.109,51.167 375.204,80.878 375.121 L 123.956 375.000 125.421 373.600 C 126.227 372.830,127.272 371.638,127.743 370.952 C 128.971 369.164,132.260 364.443,133.422 362.800 C 133.967 362.030,134.587 361.130,134.800 360.800 C 135.013 360.470,135.636 359.570,136.185 358.800 C 136.733 358.030,137.501 356.780,137.891 356.022 C 138.281 355.264,139.005 354.203,139.500 353.664 C 139.995 353.124,140.400 352.471,140.400 352.211 C 140.400 351.952,140.850 351.317,141.400 350.800 C 141.950 350.283,142.400 349.644,142.400 349.379 C 142.400 349.115,142.694 348.654,143.053 348.356 C 143.412 348.058,144.087 347.255,144.553 346.571 C 145.019 345.887,146.480 343.874,147.800 342.097 C 149.120 340.320,150.560 338.281,151.000 337.565 C 151.440 336.849,152.160 335.704,152.600 335.021 C 153.040 334.337,153.760 333.175,154.200 332.439 C 154.640 331.702,155.405 330.601,155.900 329.992 C 156.395 329.383,156.807 328.730,156.816 328.542 C 156.825 328.354,157.365 327.577,158.016 326.815 C 158.667 326.053,159.200 325.262,159.200 325.057 C 159.200 324.852,159.577 324.305,160.038 323.842 C 161.261 322.612,163.944 318.892,165.954 315.639 C 166.918 314.077,167.860 312.800,168.046 312.800 C 168.232 312.800,168.751 312.125,169.199 311.300 C 169.647 310.475,170.643 308.990,171.413 308.000 C 172.182 307.010,173.083 305.611,173.415 304.891 C 173.747 304.171,174.374 303.226,174.809 302.791 C 175.244 302.356,175.600 301.822,175.600 301.604 C 175.600 301.387,176.455 300.103,177.500 298.750 C 178.545 297.398,180.030 295.428,180.800 294.372 C 181.570 293.315,183.055 291.283,184.100 289.854 C 185.145 288.425,186.000 287.086,186.000 286.877 C 186.000 286.669,186.299 286.251,186.665 285.949 C 187.031 285.647,187.669 284.635,188.084 283.700 C 188.498 282.765,188.999 282.000,189.197 282.000 C 189.395 282.000,189.791 281.586,190.078 281.080 C 191.464 278.636,192.287 277.379,193.246 276.241 C 193.821 275.558,194.418 274.595,194.573 274.100 C 194.727 273.605,194.982 273.200,195.139 273.200 C 195.296 273.200,196.139 272.182,197.012 270.938 C 197.885 269.694,199.189 268.029,199.908 267.238 L 201.216 265.800 202.864 267.600 C 203.770 268.590,205.042 270.255,205.690 271.300 C 206.338 272.345,207.000 273.200,207.160 273.200 C 207.321 273.200,207.752 273.830,208.119 274.600 C 208.487 275.370,208.950 276.000,209.150 276.000 C 209.350 276.000,209.622 276.432,209.754 276.959 C 209.963 277.790,211.560 280.035,213.341 282.000 C 213.641 282.330,213.996 283.050,214.132 283.600 C 214.268 284.150,214.789 285.083,215.290 285.673 C 215.790 286.264,217.190 288.131,218.400 289.824 C 219.610 291.516,221.416 293.913,222.414 295.150 C 223.412 296.388,224.500 297.940,224.831 298.600 C 225.927 300.782,227.274 302.800,227.633 302.800 C 227.827 302.800,228.485 303.725,229.093 304.856 C 230.598 307.650,230.623 307.689,233.800 312.013 C 235.340 314.109,236.780 316.116,237.000 316.473 C 237.220 316.830,238.255 318.221,239.300 319.565 C 240.345 320.909,241.200 322.172,241.200 322.370 C 241.200 322.569,241.560 323.152,241.999 323.666 C 243.356 325.252,244.765 327.339,245.409 328.717 C 245.748 329.442,246.290 330.136,246.613 330.260 C 246.936 330.384,247.200 330.674,247.200 330.905 C 247.200 331.136,247.694 331.971,248.298 332.762 C 248.903 333.553,249.668 334.674,249.998 335.252 C 251.119 337.212,256.215 344.420,256.741 344.789 C 256.907 344.905,257.452 345.675,257.954 346.500 C 258.455 347.325,259.031 348.000,259.233 348.000 C 259.435 348.000,259.600 348.272,259.600 348.604 C 259.600 348.936,260.140 349.772,260.800 350.463 C 261.460 351.154,262.000 351.900,262.000 352.122 C 262.000 352.343,262.450 353.114,263.000 353.836 C 263.550 354.557,264.000 355.303,264.000 355.493 C 264.000 355.684,264.855 356.981,265.900 358.375 C 266.945 359.770,267.991 361.234,268.224 361.629 C 268.815 362.630,274.264 370.068,276.212 372.531 C 278.409 375.310,274.979 375.116,322.720 375.160 C 368.955 375.203,367.545 375.264,368.201 373.197 C 368.467 372.357,366.930 368.400,366.337 368.400 C 366.161 368.400,365.628 367.635,365.153 366.700 C 364.393 365.202,363.589 364.042,361.918 362.036 C 361.660 361.725,361.156 360.899,360.800 360.200 C 360.444 359.501,359.930 358.675,359.659 358.364 C 359.388 358.054,358.588 356.894,357.883 355.788 C 355.903 352.682,351.936 347.550,351.337 347.320 C 351.042 347.207,350.800 346.862,350.800 346.553 C 350.800 346.244,350.035 344.901,349.100 343.569 C 348.165 342.236,347.130 340.639,346.800 340.019 C 346.470 339.399,345.887 338.466,345.505 337.946 C 343.770 335.586,342.773 334.092,342.027 332.737 C 341.584 331.932,341.082 331.212,340.911 331.137 C 340.402 330.913,338.007 327.619,334.179 321.881 C 333.622 321.045,332.904 320.261,332.583 320.138 C 332.262 320.015,332.000 319.703,332.000 319.444 C 332.000 318.965,329.654 315.080,328.723 314.016 C 328.442 313.695,327.445 312.255,326.508 310.816 C 325.570 309.377,324.625 307.930,324.408 307.600 C 324.191 307.270,323.020 305.602,321.806 303.894 C 320.593 302.185,319.600 300.661,319.600 300.508 C 319.600 300.354,319.240 299.862,318.799 299.414 C 317.292 297.882,315.248 295.183,314.997 294.391 C 314.859 293.956,314.582 293.600,314.381 293.600 C 314.180 293.600,313.640 292.925,313.181 292.100 C 311.505 289.090,310.188 286.938,309.676 286.376 C 309.196 285.848,308.029 284.111,306.977 282.360 C 306.441 281.468,305.511 280.180,302.998 276.852 C 300.671 273.770,299.685 272.358,298.662 270.640 C 298.256 269.958,297.581 269.028,297.162 268.574 C 296.743 268.120,296.400 267.568,296.400 267.346 C 296.400 267.125,295.950 266.553,295.400 266.075 C 294.850 265.597,294.400 264.953,294.400 264.645 C 294.400 264.336,293.943 263.660,293.384 263.142 C 292.826 262.624,292.105 261.660,291.783 261.000 C 291.130 259.661,289.858 257.685,287.233 253.928 C 286.261 252.538,285.091 250.860,284.633 250.200 C 284.175 249.540,282.983 248.010,281.984 246.800 C 280.985 245.590,279.947 244.150,279.676 243.600 C 279.147 242.528,277.537 240.159,276.707 239.235 C 276.428 238.925,275.840 238.016,275.400 237.216 C 273.879 234.451,272.992 233.109,271.100 230.709 C 270.055 229.383,269.200 228.133,269.200 227.932 C 269.200 227.730,268.415 226.718,267.455 225.683 C 266.495 224.647,264.937 222.495,263.992 220.900 C 263.047 219.305,262.150 218.000,261.998 218.000 C 261.846 218.000,261.392 217.269,260.989 216.376 C 260.586 215.482,259.929 214.576,259.528 214.362 C 259.128 214.147,258.800 213.772,258.800 213.527 C 258.800 212.956,256.005 208.692,255.380 208.309 C 255.119 208.150,254.679 207.475,254.404 206.809 C 254.128 206.144,253.774 205.600,253.616 205.600 C 253.458 205.600,253.131 205.168,252.891 204.639 C 252.650 204.111,251.657 202.626,250.685 201.339 C 248.183 198.029,248.129 197.257,250.201 194.441 C 251.136 193.171,252.133 191.699,252.416 191.171 C 252.699 190.642,253.778 189.117,254.813 187.783 C 255.849 186.448,256.822 184.961,256.975 184.478 C 257.128 183.995,257.413 183.600,257.608 183.600 C 257.803 183.600,258.278 182.925,258.663 182.100 C 259.048 181.275,259.687 180.365,260.082 180.077 C 260.477 179.790,260.805 179.340,260.811 179.077 C 260.829 178.298,266.152 170.827,268.700 168.005 C 269.195 167.457,269.600 166.874,269.600 166.711 C 269.600 166.547,270.590 165.033,271.800 163.347 C 273.010 161.660,274.000 160.057,274.000 159.783 C 274.000 159.509,274.270 159.182,274.600 159.055 C 274.930 158.929,275.200 158.566,275.200 158.250 C 275.200 157.934,275.830 156.922,276.600 156.000 C 277.370 155.078,278.000 154.066,278.000 153.750 C 278.000 153.434,278.241 153.082,278.536 152.969 C 278.831 152.856,279.866 151.558,280.836 150.084 C 282.331 147.814,285.568 143.271,286.761 141.769 C 286.949 141.531,287.620 140.558,288.252 139.605 C 288.883 138.652,289.670 137.478,290.000 136.996 C 290.639 136.062,291.462 134.824,292.522 133.200 C 292.881 132.650,293.990 131.030,294.987 129.600 C 295.983 128.170,296.799 126.785,296.800 126.523 C 296.800 126.260,297.117 125.810,297.505 125.523 C 298.218 124.993,298.760 124.287,300.664 121.400 C 301.245 120.520,301.884 119.736,302.086 119.658 C 302.287 119.580,302.621 119.130,302.827 118.658 C 303.034 118.186,303.829 116.990,304.595 116.000 C 305.360 115.010,306.353 113.525,306.801 112.700 C 307.249 111.875,307.780 111.200,307.981 111.200 C 308.182 111.200,308.473 110.795,308.628 110.300 C 308.783 109.805,309.335 108.891,309.855 108.269 C 310.375 107.647,310.910 106.702,311.043 106.169 C 311.177 105.636,311.445 105.200,311.638 105.200 C 311.832 105.200,312.487 104.456,313.095 103.547 C 313.703 102.637,314.650 101.219,315.200 100.396 C 315.750 99.573,316.547 98.382,316.972 97.750 C 317.397 97.117,317.958 96.418,318.219 96.195 C 318.618 95.854,321.629 91.483,323.000 89.253 C 323.220 88.895,323.895 88.011,324.500 87.287 C 325.105 86.564,325.600 85.825,325.600 85.644 C 325.600 85.464,326.050 84.831,326.600 84.238 C 327.150 83.644,327.600 82.920,327.600 82.628 C 327.600 82.337,327.890 81.857,328.245 81.563 C 329.093 80.859,332.000 76.374,332.000 75.769 C 332.000 75.510,332.294 75.054,332.653 74.756 C 333.012 74.458,333.687 73.646,334.153 72.952 C 334.619 72.258,336.372 69.901,338.050 67.713 C 339.727 65.525,341.322 63.300,341.595 62.768 C 342.260 61.470,344.894 57.500,345.422 57.000 C 345.955 56.495,348.800 51.776,348.800 51.397 C 348.800 51.242,349.250 50.761,349.800 50.329 C 350.350 49.896,350.800 49.294,350.800 48.991 C 350.800 48.688,351.039 48.296,351.330 48.120 C 351.622 47.944,352.657 46.630,353.630 45.200 C 354.604 43.770,355.491 42.510,355.602 42.400 C 356.289 41.721,358.014 39.146,358.750 37.700 C 359.227 36.765,359.798 36.000,360.021 36.000 C 360.243 36.000,360.540 35.685,360.681 35.300 C 360.821 34.915,361.356 34.091,361.868 33.469 C 362.947 32.160,363.066 30.557,362.177 29.289 L 361.555 28.400 317.557 28.400 C 269.650 28.400,272.575 28.260,270.348 30.664 C 269.374 31.716,267.668 34.159,266.517 36.150 C 266.251 36.610,265.783 37.169,265.478 37.393 C 265.173 37.617,264.640 38.348,264.293 39.019 C 263.517 40.522,259.227 46.925,258.813 47.200 C 258.647 47.310,258.209 47.940,257.839 48.600 C 257.068 49.975,256.103 51.312,253.698 54.336 C 252.764 55.511,252.000 56.602,252.000 56.760 C 252.000 56.919,251.677 57.398,251.283 57.825 C 250.889 58.251,249.872 59.680,249.023 61.000 C 248.173 62.320,247.066 64.030,246.562 64.800 C 246.057 65.570,245.459 66.695,245.232 67.300 C 245.005 67.905,244.653 68.400,244.449 68.400 C 244.108 68.400,243.605 69.092,241.400 72.596 C 240.960 73.296,239.862 74.752,238.960 75.834 C 237.275 77.855,231.824 85.689,230.858 87.480 C 230.560 88.032,229.975 88.825,229.558 89.242 C 229.141 89.659,228.800 90.173,228.800 90.384 C 228.800 90.596,228.427 91.117,227.970 91.542 C 227.514 91.967,226.839 92.858,226.470 93.523 C 226.102 94.188,225.369 95.512,224.843 96.466 C 224.316 97.420,223.126 99.100,222.197 100.200 C 221.269 101.300,220.311 102.581,220.069 103.047 C 219.827 103.513,218.497 105.353,217.114 107.138 C 215.731 108.922,213.520 112.099,212.200 114.198 C 210.880 116.298,209.305 118.667,208.700 119.463 C 208.095 120.259,207.600 121.149,207.600 121.441 C 207.600 121.733,207.242 122.163,206.805 122.397 C 206.367 122.632,205.897 123.270,205.760 123.817 C 205.623 124.363,205.301 124.943,205.045 125.105 C 204.788 125.267,203.983 126.165,203.256 127.100 C 201.488 129.372,200.938 129.260,198.595 126.156 C 197.498 124.702,196.195 123.073,195.700 122.538 C 195.205 122.002,194.800 121.406,194.800 121.213 C 194.800 121.019,194.318 120.288,193.728 119.588 C 193.139 118.887,192.374 117.822,192.028 117.220 C 190.570 114.681,189.748 113.437,188.900 112.489 C 188.405 111.936,188.000 111.271,188.000 111.011 C 188.000 110.751,187.010 109.248,185.800 107.671 C 184.590 106.094,183.600 104.722,183.600 104.623 C 183.600 104.524,182.745 103.295,181.700 101.892 C 180.655 100.490,179.260 98.576,178.600 97.639 C 177.940 96.702,177.092 95.628,176.715 95.252 C 176.338 94.876,175.750 93.900,175.409 93.084 C 175.068 92.268,174.641 91.600,174.459 91.600 C 174.277 91.600,173.931 91.166,173.689 90.636 C 173.232 89.633,170.859 86.402,169.807 85.350 C 169.473 85.016,169.199 84.531,169.197 84.271 C 169.194 83.673,164.749 77.150,161.380 72.800 C 160.614 71.810,159.612 70.415,159.154 69.700 C 158.696 68.985,158.155 68.400,157.952 68.400 C 157.749 68.400,157.370 67.905,157.110 67.300 C 156.685 66.315,155.814 64.906,153.530 61.516 C 153.129 60.920,152.800 60.237,152.800 59.998 C 152.800 59.759,152.354 59.118,151.809 58.573 C 151.264 58.028,150.616 57.204,150.368 56.741 C 150.121 56.278,149.352 55.139,148.659 54.210 C 147.967 53.280,146.680 51.491,145.800 50.234 C 144.920 48.976,143.868 47.554,143.462 47.074 C 143.056 46.593,142.446 45.660,142.108 45.000 C 141.769 44.340,141.246 43.656,140.946 43.480 C 140.646 43.304,140.400 42.912,140.400 42.609 C 140.400 42.306,139.950 41.704,139.400 41.271 C 138.850 40.839,138.399 40.331,138.399 40.142 C 138.397 39.820,137.344 38.094,136.000 36.212 C 135.670 35.750,135.040 34.748,134.600 33.986 C 134.160 33.224,132.882 31.655,131.761 30.500 L 129.722 28.400 85.561 28.406 C 61.272 28.409,41.202 28.544,40.960 28.706 M129.540 30.370 C 130.370 30.793,131.576 31.918,132.219 32.870 C 132.862 33.821,134.053 35.410,134.864 36.400 C 135.676 37.390,136.758 38.950,137.270 39.867 C 138.490 42.054,144.453 50.751,148.194 55.800 C 149.824 58.000,152.068 61.264,153.181 63.053 C 154.294 64.842,155.473 66.529,155.802 66.802 C 156.131 67.075,156.400 67.515,156.400 67.779 C 156.400 68.044,156.850 68.683,157.400 69.200 C 157.950 69.717,158.400 70.289,158.400 70.471 C 158.400 70.653,160.024 73.097,162.009 75.901 C 170.695 88.175,171.883 89.858,173.344 91.969 C 174.194 93.196,175.047 94.560,175.239 95.000 C 175.432 95.440,176.392 96.880,177.372 98.200 C 178.352 99.520,179.837 101.590,180.671 102.800 C 181.505 104.010,182.836 105.810,183.627 106.800 C 184.828 108.304,187.937 112.860,194.000 122.002 C 201.330 133.057,201.818 133.054,208.244 121.939 C 208.489 121.516,209.042 120.772,209.474 120.285 C 209.906 119.798,211.653 117.330,213.356 114.800 C 216.890 109.550,222.158 102.135,223.972 99.857 C 224.647 99.008,225.200 98.171,225.200 97.997 C 225.200 97.427,228.441 92.642,233.408 85.879 C 234.732 84.075,236.301 81.880,236.893 81.000 C 237.486 80.120,238.787 78.268,239.785 76.885 C 240.783 75.502,241.609 74.242,241.620 74.085 C 241.631 73.928,242.432 72.720,243.400 71.400 C 244.368 70.080,246.368 67.216,247.844 65.036 C 249.320 62.856,251.589 59.616,252.886 57.836 C 255.490 54.261,256.895 52.259,258.400 49.977 C 263.744 41.873,265.432 39.418,268.207 35.709 C 269.971 33.351,272.022 31.013,272.766 30.511 L 274.118 29.600 316.009 29.600 C 339.049 29.600,358.477 29.715,359.181 29.856 C 361.986 30.417,361.606 32.196,357.571 37.400 C 356.548 38.720,354.235 41.960,352.431 44.600 C 350.627 47.240,348.709 50.030,348.169 50.800 C 347.629 51.570,347.016 52.470,346.805 52.800 C 346.595 53.130,345.601 54.570,344.597 56.000 C 343.593 57.430,342.463 59.111,342.086 59.735 C 341.709 60.359,340.320 62.339,339.000 64.136 C 337.680 65.932,336.286 67.851,335.902 68.401 C 335.518 68.950,334.502 70.390,333.643 71.600 C 332.785 72.810,331.246 75.150,330.224 76.800 C 329.202 78.450,327.746 80.610,326.990 81.600 C 326.234 82.590,325.315 83.940,324.947 84.600 C 324.578 85.260,323.599 86.610,322.770 87.600 C 321.941 88.590,320.523 90.480,319.618 91.800 C 316.646 96.134,311.016 104.518,310.200 105.825 C 309.405 107.098,307.076 110.353,304.402 113.930 C 303.633 114.959,302.142 117.060,301.089 118.600 C 296.024 126.009,292.125 131.799,291.400 132.991 C 290.960 133.714,289.736 135.452,288.679 136.853 C 285.019 141.706,281.621 146.516,279.991 149.152 C 279.089 150.608,277.736 152.610,276.984 153.600 C 276.232 154.590,275.316 155.940,274.949 156.600 C 274.582 157.260,273.705 158.520,273.001 159.400 C 272.296 160.280,270.945 162.170,269.999 163.600 C 269.052 165.030,267.572 167.100,266.710 168.200 C 265.848 169.300,264.529 171.190,263.779 172.400 C 263.028 173.610,262.036 175.050,261.574 175.600 C 261.112 176.150,259.322 178.760,257.597 181.400 C 255.872 184.040,253.189 187.910,251.634 190.000 C 246.570 196.808,246.296 198.166,249.247 201.844 C 252.005 205.283,259.733 216.328,262.312 220.518 C 263.095 221.790,264.047 223.137,270.200 231.666 C 272.620 235.020,274.828 238.223,275.107 238.783 C 275.385 239.342,276.228 240.610,276.979 241.600 C 278.105 243.085,281.259 247.679,284.028 251.865 C 284.474 252.540,291.472 262.279,292.892 264.200 C 293.054 264.420,294.298 266.310,295.655 268.400 C 299.014 273.573,300.380 275.585,301.491 277.000 C 303.488 279.543,308.400 286.418,308.400 286.671 C 308.400 286.817,308.709 287.278,309.087 287.696 C 309.464 288.113,310.139 289.057,310.587 289.795 C 311.299 290.968,312.253 292.418,314.934 296.400 C 315.304 296.950,316.232 298.210,316.996 299.200 C 317.759 300.190,318.682 301.540,319.047 302.200 C 319.411 302.860,320.763 304.804,322.052 306.521 C 323.340 308.237,324.600 310.037,324.851 310.521 C 325.103 311.004,326.068 312.300,326.996 313.400 C 327.923 314.500,328.988 315.940,329.362 316.600 C 331.603 320.556,336.570 327.970,338.633 330.440 C 339.420 331.382,342.063 335.133,344.506 338.776 C 346.948 342.419,349.679 346.460,350.574 347.756 C 351.468 349.052,352.470 350.515,352.800 351.007 C 353.130 351.499,353.732 352.329,354.139 352.851 C 355.450 354.537,361.603 363.328,363.201 365.800 C 364.055 367.120,365.113 368.665,365.552 369.234 C 366.876 370.947,367.009 372.208,365.943 372.955 C 364.976 373.632,281.206 373.912,278.817 373.246 C 278.221 373.080,277.117 371.933,276.017 370.337 C 275.018 368.888,272.580 365.476,270.600 362.755 C 267.496 358.489,264.405 354.020,260.400 348.008 C 259.850 347.183,258.907 345.808,258.304 344.953 C 257.702 344.099,256.897 342.950,256.517 342.400 C 251.969 335.823,249.143 331.844,247.811 330.143 C 246.925 329.011,245.390 326.807,244.400 325.245 C 239.780 317.954,238.694 316.357,235.436 312.055 C 233.876 309.996,232.073 307.476,231.430 306.455 C 230.786 305.435,229.256 303.168,228.030 301.419 C 226.803 299.669,225.440 297.665,225.000 296.965 C 223.554 294.666,222.080 292.537,221.535 291.964 C 221.241 291.654,220.154 290.140,219.119 288.600 C 218.085 287.060,215.716 283.640,213.855 281.000 C 211.995 278.360,210.093 275.660,209.629 275.000 C 209.165 274.340,207.496 271.846,205.921 269.459 C 201.192 262.293,201.092 262.329,193.564 273.865 C 192.113 276.089,188.639 281.021,188.398 281.200 C 188.250 281.310,186.665 283.560,184.877 286.200 C 183.088 288.840,180.404 292.680,178.912 294.734 C 177.420 296.788,175.660 299.353,175.000 300.435 C 172.309 304.848,168.084 310.981,166.261 313.122 C 165.195 314.375,163.996 316.030,163.596 316.800 C 163.197 317.570,162.539 318.560,162.135 319.000 C 161.465 319.730,160.658 320.914,156.277 327.600 C 155.484 328.810,153.936 331.060,152.837 332.600 C 151.737 334.140,149.857 336.840,148.657 338.600 C 147.458 340.360,145.964 342.469,145.338 343.286 C 143.305 345.941,141.725 348.187,141.460 348.800 C 141.317 349.130,140.573 350.210,139.807 351.200 C 139.041 352.190,138.068 353.634,137.646 354.408 C 137.223 355.183,135.015 358.393,132.739 361.542 C 130.462 364.691,128.330 367.657,128.000 368.134 C 124.998 372.468,124.381 373.098,122.900 373.343 C 119.676 373.876,37.858 373.618,36.800 373.072 C 34.894 372.088,35.428 370.856,41.211 362.895 C 43.088 360.313,45.411 357.030,46.374 355.600 C 47.337 354.170,48.467 352.550,48.884 352.000 C 49.301 351.450,50.049 350.370,50.545 349.600 C 52.650 346.333,59.518 336.368,61.573 333.601 C 64.222 330.033,64.648 329.436,66.148 327.185 C 66.780 326.238,67.462 325.269,67.663 325.031 C 67.865 324.794,68.968 323.128,70.115 321.328 C 72.880 316.990,74.857 314.124,77.998 309.903 C 80.509 306.527,83.904 301.664,85.723 298.837 C 87.332 296.336,88.692 294.350,92.596 288.800 C 93.602 287.370,95.240 285.030,96.236 283.600 C 97.233 282.170,98.765 280.010,99.642 278.800 C 100.519 277.590,102.479 274.710,103.997 272.400 C 107.499 267.072,107.886 266.515,110.930 262.400 C 114.530 257.535,117.512 253.220,119.713 249.689 C 120.765 248.001,122.313 245.806,123.152 244.810 C 123.991 243.815,125.001 242.370,125.398 241.600 C 125.794 240.830,126.697 239.480,127.406 238.600 C 128.114 237.720,129.842 235.332,131.246 233.293 C 132.651 231.254,134.917 228.014,136.283 226.093 C 137.648 224.172,139.130 221.937,139.577 221.127 C 140.023 220.317,140.582 219.535,140.819 219.388 C 141.056 219.242,141.400 218.735,141.584 218.261 C 141.767 217.788,142.795 216.230,143.867 214.800 C 144.939 213.370,146.253 211.480,146.785 210.600 C 147.318 209.720,148.488 208.100,149.385 207.000 C 151.844 203.986,153.508 201.478,154.571 199.184 L 155.528 197.118 154.464 195.381 C 153.879 194.426,152.230 191.996,150.800 189.981 C 144.495 181.099,141.924 177.341,141.596 176.532 C 141.403 176.055,141.007 175.515,140.717 175.332 C 140.427 175.150,138.428 172.390,136.277 169.200 C 130.216 160.216,128.018 157.085,127.006 156.000 C 126.493 155.450,125.742 154.442,125.337 153.760 C 124.932 153.079,124.251 151.999,123.823 151.360 C 123.396 150.722,122.003 148.580,120.727 146.600 C 119.451 144.620,117.861 142.280,117.194 141.400 C 116.527 140.520,115.270 138.810,114.400 137.600 C 113.531 136.390,112.050 134.348,111.110 133.063 C 110.169 131.777,109.040 130.142,108.600 129.428 C 108.160 128.715,107.307 127.427,106.704 126.566 C 105.490 124.831,105.184 124.382,103.042 121.200 C 102.228 119.990,101.125 118.370,100.592 117.600 C 100.059 116.830,99.033 115.337,98.312 114.283 C 97.590 113.228,95.920 110.887,94.600 109.079 C 91.401 104.699,91.210 104.424,88.142 99.800 C 83.481 92.775,82.031 90.638,80.816 89.000 C 76.018 82.539,70.233 74.204,69.154 72.200 C 68.680 71.320,67.822 70.031,67.246 69.336 C 66.671 68.640,65.785 67.470,65.278 66.736 C 63.092 63.572,58.671 57.319,57.969 56.400 C 57.549 55.850,56.909 54.860,56.547 54.200 C 56.185 53.540,55.777 52.910,55.642 52.800 C 55.170 52.418,52.753 48.970,49.472 44.000 C 47.657 41.250,45.068 37.519,43.718 35.709 C 41.014 32.082,40.773 30.525,42.826 29.952 C 45.572 29.185,127.997 29.582,129.540 30.370 " stroke="none" fill="#9dddfc" fill-rule="evenodd"></path></g></svg>